<svg width="31" height="30" viewBox="0 0 31 30" fill="none" xmlns="http://www.w3.org/2000/svg">
<path d="M13.9358 9.00549H22.8418C23.2355 9.00549 23.6131 8.8496 23.8914 8.57212C24.1698 8.29465 24.3262 7.9183 24.3262 7.52589C24.3262 7.13348 24.1698 6.75714 23.8914 6.47966C23.6131 6.20218 23.2355 6.0463 22.8418 6.0463H13.9358C13.5421 6.0463 13.1646 6.20218 12.8862 6.47966C12.6079 6.75714 12.4515 7.13348 12.4515 7.52589C12.4515 7.9183 12.6079 8.29465 12.8862 8.57212C13.1646 8.8496 13.5421 9.00549 13.9358 9.00549ZM19.8732 17.8831H16.9045C16.5108 17.8831 16.1333 18.0389 15.8549 18.3164C15.5765 18.5939 15.4202 18.9702 15.4202 19.3627C15.4202 19.7551 15.5765 20.1314 15.8549 20.4089C16.1333 20.6864 16.5108 20.8423 16.9045 20.8423H19.8732C20.2668 20.8423 20.6444 20.6864 20.9228 20.4089C21.2011 20.1314 21.3575 19.7551 21.3575 19.3627C21.3575 18.9702 21.2011 18.5939 20.9228 18.3164C20.6444 18.0389 20.2668 17.8831 19.8732 17.8831ZM2.06112 14.9239H6.51413V28.2402C6.51309 28.501 6.58118 28.7573 6.71152 28.9834C6.84184 29.2094 7.02978 29.3971 7.2563 29.5275C7.48195 29.6573 7.73791 29.7257 7.99847 29.7257C8.25902 29.7257 8.51499 29.6573 8.74064 29.5275L13.1937 26.9826L17.6467 29.5275C17.8723 29.6573 18.1283 29.7257 18.3888 29.7257C18.6494 29.7257 18.9054 29.6573 19.131 29.5275L23.584 26.9826L28.037 29.5275C28.2627 29.6573 28.5186 29.7257 28.7792 29.7257C29.0398 29.7257 29.2957 29.6573 29.5214 29.5275C29.7479 29.3971 29.9358 29.2094 30.0662 28.9834C30.1965 28.7573 30.2646 28.501 30.2635 28.2402V4.5667C30.2635 3.38946 29.7944 2.26044 28.9593 1.428C28.1242 0.59557 26.9915 0.127914 25.8105 0.127914H5.02979C3.84878 0.127914 2.71614 0.59557 1.88103 1.428C1.04593 2.26044 0.576778 3.38946 0.576778 4.5667V13.4443C0.576778 13.8367 0.733162 14.213 1.01153 14.4905C1.2899 14.768 1.66744 14.9239 2.06112 14.9239ZM25.8105 3.0871C26.2042 3.0871 26.5817 3.24299 26.8601 3.52047C27.1385 3.79795 27.2949 4.17429 27.2949 4.5667V25.6805L24.3262 23.9938C24.0971 23.8745 23.8425 23.8122 23.584 23.8122C23.3256 23.8122 23.0709 23.8745 22.8418 23.9938L18.3888 26.5387L13.9358 23.9938C13.7067 23.8745 13.4521 23.8122 13.1937 23.8122C12.9352 23.8122 12.6806 23.8745 12.4515 23.9938L9.48281 25.6805V4.5667C9.47879 4.06195 9.38844 3.56157 9.21562 3.0871H25.8105ZM3.54545 4.5667C3.54545 4.17429 3.70184 3.79795 3.98021 3.52047C4.25857 3.24299 4.63612 3.0871 5.02979 3.0871C5.42346 3.0871 5.80101 3.24299 6.07938 3.52047C6.35775 3.79795 6.51413 4.17429 6.51413 4.5667V11.9647H3.54545V4.5667ZM13.9358 14.9239H22.8418C23.2355 14.9239 23.6131 14.768 23.8914 14.4905C24.1698 14.213 24.3262 13.8367 24.3262 13.4443C24.3262 13.0519 24.1698 12.6755 23.8914 12.398C23.6131 12.1206 23.2355 11.9647 22.8418 11.9647H13.9358C13.5421 11.9647 13.1646 12.1206 12.8862 12.398C12.6079 12.6755 12.4515 13.0519 12.4515 13.4443C12.4515 13.8367 12.6079 14.213 12.8862 14.4905C13.1646 14.768 13.5421 14.9239 13.9358 14.9239Z" fill="#BFBFBF"/>
</svg>
