<svg width="38" height="32" viewBox="0 0 38 32" fill="none" xmlns="http://www.w3.org/2000/svg">
<path d="M16.5451 10.0489V3.828H0.992798V31.8221H32.0973V10.0489H16.5451ZM7.21371 28.7116H4.10325V25.6012H7.21371V28.7116ZM7.21371 22.4907H4.10325V19.3803H7.21371V22.4907ZM7.21371 16.2698H4.10325V13.1594H7.21371V16.2698ZM7.21371 10.0489H4.10325V6.93846H7.21371V10.0489ZM13.4346 28.7116H10.3242V25.6012H13.4346V28.7116ZM13.4346 22.4907H10.3242V19.3803H13.4346V22.4907ZM13.4346 16.2698H10.3242V13.1594H13.4346V16.2698ZM13.4346 10.0489H10.3242V6.93846H13.4346V10.0489ZM28.9869 28.7116H16.5451V25.6012H19.6555V22.4907H16.5451V19.3803H19.6555V16.2698H16.5451V13.1594H28.9869V28.7116ZM25.8764 16.2698H22.766V19.3803H25.8764V16.2698ZM25.8764 22.4907H22.766V25.6012H25.8764V22.4907Z" fill="#BFBFBF"/>
<path d="M37.8476 9.52891C37.8476 14.3552 33.9351 18.2677 29.1088 18.2677C24.2825 18.2677 20.3701 14.3552 20.3701 9.52891C20.3701 4.70263 24.2825 0.790161 29.1088 0.790161C33.9351 0.790161 37.8476 4.70263 37.8476 9.52891Z" fill="#C4C4C4"/>
<path d="M29.1481 6.78438C27.619 6.78438 26.4036 7.99982 26.4036 9.52893C26.4036 11.058 27.619 12.2735 29.1481 12.2735C30.6772 12.2735 31.8927 11.058 31.8927 9.52893C31.8927 7.99982 30.6772 6.78438 29.1481 6.78438ZM29.1481 11.4893C28.0503 11.4893 27.1877 10.6268 27.1877 9.52893C27.1877 8.43111 28.0503 7.56853 29.1481 7.56853C30.246 7.56853 31.1085 8.43111 31.1085 9.52893C31.1085 10.6268 30.246 11.4893 29.1481 11.4893Z" fill="white"/>
<path d="M34.8948 8.23882L33.8002 7.88697L33.5656 7.30055L34.113 6.28409C34.2302 6.04952 34.1911 5.73677 33.9957 5.54129L33.0574 4.60302C32.8619 4.40755 32.5492 4.36845 32.3146 4.48574L31.2981 5.03306L30.7117 4.79849L30.3599 3.70384C30.2817 3.46928 30.0471 3.2738 29.7734 3.2738H28.4442C28.1706 3.2738 27.936 3.46928 27.8969 3.74294L27.5451 4.83759C27.3105 4.87668 27.115 4.95487 26.9195 5.07216L25.9031 4.52483C25.6685 4.40755 25.3558 4.44664 25.1603 4.64212L24.222 5.58039C24.0265 5.77586 23.9874 6.08862 24.1047 6.32318L24.613 7.30055C24.5348 7.49602 24.4566 7.73059 24.3784 7.92606L23.2837 8.27792C23.0492 8.35611 22.8537 8.59067 22.8537 8.86434V10.1936C22.8537 10.4672 23.0492 10.7018 23.3228 10.78L24.4175 11.1318L24.6521 11.7182L24.1047 12.7347C23.9874 12.9693 24.0265 13.282 24.222 13.4775L25.1603 14.4158C25.3558 14.6112 25.6685 14.6503 25.9031 14.5331L26.9195 13.9857L27.506 14.2203L27.8578 15.354C27.936 15.5886 28.1706 15.7841 28.4442 15.7841H29.7734C30.0471 15.7841 30.2817 15.5886 30.3599 15.354L30.7117 14.2203L31.2981 13.9857L32.3146 14.5331C32.5492 14.6503 32.8619 14.6112 33.0574 14.4158L33.9957 13.4775C34.1911 13.282 34.2302 12.9693 34.113 12.7347L33.5656 11.7182L33.8002 11.1318L34.9339 10.78C35.1685 10.7018 35.364 10.4672 35.364 10.1936V8.86434C35.364 8.59067 35.1685 8.31701 34.8948 8.23882ZM34.5821 10.0763L33.1747 10.5063L33.1356 10.7018L32.7837 11.5228L32.6665 11.7182L33.3702 13.0084L32.5883 13.7903L31.2981 13.0866L31.1027 13.2038C30.829 13.3602 30.5553 13.4775 30.2817 13.5557L30.0862 13.5948L29.6562 15.0022H28.5615L28.1315 13.5948L27.936 13.5557L27.115 13.2038L26.9195 13.0866L25.6294 13.7903L24.8475 13.0084L25.5512 11.7182L25.4339 11.5228C25.2776 11.2491 25.1603 10.9754 25.0821 10.7018L25.043 10.5063L23.6356 10.0763V8.98162L24.9648 8.59067L25.043 8.3952C25.1212 8.08244 25.2385 7.80878 25.3948 7.53512L25.5121 7.33964L24.8475 6.04952L25.6294 5.26763L26.8804 5.97133L27.0759 5.85405C27.3496 5.69767 27.6232 5.58039 27.936 5.5022L28.1315 5.42401L28.5615 4.0557H29.6562L30.0862 5.42401L30.2817 5.5022C30.5553 5.58039 30.829 5.69767 31.1027 5.85405L31.2981 5.97133L32.5883 5.26763L33.3702 6.04952L32.6665 7.33964L32.7837 7.53512C32.9401 7.80878 33.0574 8.08244 33.1356 8.35611L33.1747 8.55158L34.5821 8.98162V10.0763Z" fill="white"/>
</svg>
