<svg width="29" height="29" viewBox="0 0 29 29" fill="none" xmlns="http://www.w3.org/2000/svg">
<path d="M19.4191 0.561646C18.0137 0.561323 16.6277 0.890212 15.3723 1.52195C14.1169 2.1537 13.0269 3.07073 12.1897 4.19956C11.3525 5.32839 10.7914 6.63764 10.5513 8.02238C10.3112 9.40712 10.3988 10.8289 10.8071 12.1736L0.419067 22.5616V28.5616H6.41907L16.8071 18.1736C18.045 18.5494 19.3493 18.6539 20.6313 18.4799C21.9132 18.306 23.1425 17.8577 24.2356 17.1657C25.3286 16.4737 26.2596 15.5541 26.9651 14.4697C27.6706 13.3854 28.134 12.1617 28.3238 10.882C28.5136 9.6023 28.4252 8.29675 28.0648 7.05429C27.7044 5.81183 27.0804 4.66168 26.2353 3.68221C25.3902 2.70273 24.3438 1.91697 23.1675 1.37846C21.9913 0.839945 20.7127 0.561346 19.4191 0.561646ZM19.4191 16.5616C18.7306 16.5613 18.0459 16.4595 17.3871 16.2596L16.2401 15.9116L15.3931 16.7586L12.2121 19.9396L10.8331 18.5616L9.41907 19.9756L10.7981 21.3546L9.21207 22.9406L7.83307 21.5616L6.41907 22.9756L7.79807 24.3546L5.59107 26.5616H2.41907V23.3896L12.2211 13.5876L13.0691 12.7406L12.7211 11.5936C12.2936 10.1846 12.3214 8.67673 12.8004 7.28441C13.2794 5.89209 14.1853 4.68627 15.3891 3.83847C16.5929 2.99067 18.0335 2.54406 19.5058 2.56218C20.9781 2.58029 22.4072 3.0622 23.5898 3.93936C24.7724 4.81653 25.6483 6.04427 26.0929 7.44795C26.5375 8.85163 26.5282 10.3598 26.0662 11.7578C25.6043 13.1559 24.7132 14.3727 23.5198 15.2351C22.3264 16.0976 20.8915 16.5618 19.4191 16.5616Z" fill="#BFBFBF"/>
</svg>
