<svg width="28" height="21" viewBox="0 0 28 21" fill="none" xmlns="http://www.w3.org/2000/svg">
<path d="M12.6739 4.43193C8.52442 4.43193 6.16939 7.17859 5.82753 10.4963H5.72275C5.08845 10.4955 4.4602 10.6196 3.87387 10.8616C3.28754 11.1035 2.75463 11.4587 2.30556 11.9066C1.8565 12.3546 1.50009 12.8866 1.25668 13.4724C1.01327 14.0581 0.887629 14.686 0.886942 15.3203C0.887802 15.9545 1.01356 16.5823 1.25705 17.1679C1.50054 17.7535 1.85698 18.2854 2.30603 18.7332C2.75507 19.1811 3.28793 19.5361 3.87417 19.778C4.46041 20.0199 5.08856 20.1439 5.72275 20.1431H19.6263C20.2605 20.1439 20.8887 20.0199 21.4749 19.778C22.0612 19.5361 22.594 19.1811 23.0431 18.7332C23.4921 18.2854 23.8485 17.7535 24.092 17.1679C24.3355 16.5823 24.4613 15.9545 24.4621 15.3203C24.4615 14.686 24.3358 14.0581 24.0924 13.4724C23.849 12.8866 23.4926 12.3546 23.0435 11.9066C22.5945 11.4587 22.0615 11.1035 21.4752 10.8616C20.8889 10.6196 20.2606 10.4955 19.6263 10.4963H19.5216C19.1771 7.15633 16.8234 4.43193 12.6739 4.43193ZM12.6739 6.39271C15.3878 6.39271 17.752 8.53293 17.752 11.4879C17.752 11.9555 18.1698 12.3235 18.6479 12.3235H19.5517C21.2047 12.3235 22.5433 13.6333 22.5433 15.2522C22.5433 16.8698 21.2047 18.181 19.553 18.181H5.79609C4.14443 18.181 2.80581 16.8712 2.80581 15.2522C2.80581 13.6346 4.14443 12.3235 5.79609 12.3235H6.69986C7.17925 12.3235 7.59708 11.9568 7.59708 11.4879C7.59708 8.49495 9.96128 6.39271 12.6739 6.39271ZM16.6059 0.490723C14.488 0.490723 12.611 1.55821 11.4977 3.19154C11.888 3.14488 12.2808 3.1217 12.6739 3.12212C13.1913 3.12212 13.689 3.16011 14.1658 3.23346C14.7455 2.82259 15.4196 2.56484 16.1255 2.48413C16.8314 2.40341 17.5463 2.50236 18.2038 2.77178C18.8613 3.0412 19.44 3.47235 19.8863 4.02523C20.3326 4.5781 20.632 5.23477 20.7567 5.93428L20.8523 6.47654C20.9056 6.77999 21.0642 7.05495 21.3002 7.25307C21.5361 7.45118 21.8344 7.55977 22.1425 7.55975H22.7843C23.2458 7.55926 23.6971 7.69561 24.0812 7.95155C24.4652 8.2075 24.7647 8.57156 24.9419 8.99771C25.1191 9.42386 25.166 9.89298 25.0766 10.3458C24.9873 10.7985 24.7657 11.2147 24.4399 11.5416C24.8525 12.0655 25.1799 12.6614 25.4026 13.3059C26.0989 12.7718 26.6151 12.0374 26.8818 11.2014C27.1486 10.3653 27.153 9.46769 26.8946 8.62904C26.6362 7.79038 26.1273 7.0509 25.4364 6.50994C24.7454 5.96898 23.9054 5.65246 23.0292 5.6029L22.6926 5.59504C22.4393 4.16475 21.6905 2.8693 20.5775 1.93595C19.4646 1.0026 18.0585 0.490937 16.6059 0.490723Z" fill="white"/>
</svg>
