<svg width="33" height="33" viewBox="0 0 33 33" fill="none" xmlns="http://www.w3.org/2000/svg">
<path d="M15.0978 10.0736H24.754C25.1808 10.0736 25.5901 9.90459 25.8919 9.60374C26.1938 9.30289 26.3633 8.89485 26.3633 8.46939C26.3633 8.04392 26.1938 7.63588 25.8919 7.33503C25.5901 7.03418 25.1808 6.86517 24.754 6.86517H15.0978C14.671 6.86517 14.2616 7.03418 13.9598 7.33503C13.658 7.63588 13.4884 8.04392 13.4884 8.46939C13.4884 8.89485 13.658 9.30289 13.9598 9.60374C14.2616 9.90459 14.671 10.0736 15.0978 10.0736ZM21.5352 19.6989H18.3165C17.8897 19.6989 17.4803 19.8679 17.1785 20.1688C16.8767 20.4696 16.7072 20.8777 16.7072 21.3031C16.7072 21.7286 16.8767 22.1367 17.1785 22.4375C17.4803 22.7384 17.8897 22.9074 18.3165 22.9074H21.5352C21.9621 22.9074 22.3714 22.7384 22.6732 22.4375C22.975 22.1367 23.1446 21.7286 23.1446 21.3031C23.1446 20.8777 22.975 20.4696 22.6732 20.1688C22.3714 19.8679 21.9621 19.6989 21.5352 19.6989ZM2.22289 16.4905H7.05098V30.9285C7.04985 31.2111 7.12368 31.4891 7.26499 31.7342C7.4063 31.9793 7.61007 32.1828 7.85566 32.3241C8.10032 32.4649 8.37784 32.5391 8.66034 32.5391C8.94284 32.5391 9.22037 32.4649 9.46502 32.3241L14.2931 29.5649L19.1212 32.3241C19.3658 32.4649 19.6434 32.5391 19.9259 32.5391C20.2084 32.5391 20.4859 32.4649 20.7306 32.3241L25.5586 29.5649L30.3867 32.3241C30.6314 32.4649 30.9089 32.5391 31.1914 32.5391C31.4739 32.5391 31.7514 32.4649 31.9961 32.3241C32.2417 32.1828 32.4455 31.9793 32.5868 31.7342C32.7281 31.4891 32.8019 31.2111 32.8008 30.9285V5.26094C32.8008 3.98455 32.2921 2.76043 31.3867 1.85788C30.4812 0.955332 29.2532 0.448284 27.9727 0.448284H5.44162C4.16113 0.448284 2.93309 0.955332 2.02765 1.85788C1.12221 2.76043 0.613533 3.98455 0.613533 5.26094V14.8863C0.613533 15.3117 0.783089 15.7198 1.0849 16.0206C1.38672 16.3215 1.79607 16.4905 2.22289 16.4905ZM27.9727 3.65672C28.3995 3.65672 28.8089 3.82574 29.1107 4.12659C29.4125 4.42744 29.582 4.83548 29.582 5.26094V28.1532L26.3633 26.3244C26.1149 26.195 25.8389 26.1275 25.5586 26.1275C25.2784 26.1275 25.0023 26.195 24.754 26.3244L19.9259 29.0836L15.0978 26.3244C14.8494 26.195 14.5733 26.1275 14.2931 26.1275C14.0129 26.1275 13.7368 26.195 13.4884 26.3244L10.2697 28.1532V5.26094C10.2654 4.71368 10.1674 4.17116 9.98002 3.65672H27.9727ZM3.83226 5.26094C3.83226 4.83548 4.00181 4.42744 4.30363 4.12659C4.60544 3.82574 5.01479 3.65672 5.44162 3.65672C5.86845 3.65672 6.2778 3.82574 6.57961 4.12659C6.88142 4.42744 7.05098 4.83548 7.05098 5.26094V13.282H3.83226V5.26094ZM15.0978 16.4905H24.754C25.1808 16.4905 25.5901 16.3215 25.8919 16.0206C26.1938 15.7198 26.3633 15.3117 26.3633 14.8863C26.3633 14.4608 26.1938 14.0528 25.8919 13.7519C25.5901 13.4511 25.1808 13.282 24.754 13.282H15.0978C14.671 13.282 14.2616 13.4511 13.9598 13.7519C13.658 14.0528 13.4884 14.4608 13.4884 14.8863C13.4884 15.3117 13.658 15.7198 13.9598 16.0206C14.2616 16.3215 14.671 16.4905 15.0978 16.4905Z" fill="#1EAAE7"/>
</svg>
