<svg width="58" height="58" viewBox="0 0 58 58" fill="none" xmlns="http://www.w3.org/2000/svg">
<circle cx="28.9025" cy="29.0224" r="28.8151" fill="#1EAAE7"/>
<path d="M27.4786 38.6348V30.1108C24.8204 29.3513 22.8674 28.2053 21.6196 26.6727C20.3854 25.1266 19.7683 23.255 19.7683 21.0578C19.7683 18.8336 20.4668 16.9687 21.8637 15.4633C23.2742 13.9443 25.1459 13.0695 27.4786 12.839V10.825H30.4284V12.839C32.5849 13.0967 34.3005 13.8358 35.5754 15.0564C36.8503 16.2635 37.664 17.8842 38.0166 19.9186L32.8697 20.5899C32.5577 18.9896 31.744 17.9046 30.4284 17.3349V25.2893C33.6834 26.1709 35.9009 27.3169 37.0808 28.7274C38.2608 30.1243 38.8507 31.9214 38.8507 34.1185C38.8507 36.5733 38.1048 38.6416 36.6129 40.3233C35.1346 42.0051 33.0731 43.0358 30.4284 43.4156V47.2198H27.4786V43.5173C25.1323 43.2325 23.2268 42.3577 21.762 40.8929C20.2973 39.4282 19.3615 37.3599 18.9546 34.6881L24.2643 34.1185C24.4813 35.2035 24.8882 36.1393 25.4849 36.9259C26.0817 37.7125 26.7462 38.2822 27.4786 38.6348ZM27.4786 17.2739C26.6784 17.5452 26.041 18.0063 25.5663 18.6573C25.0916 19.3083 24.8543 20.0271 24.8543 20.8137C24.8543 21.5325 25.0713 22.2039 25.5053 22.8277C25.9393 23.438 26.597 23.9331 27.4786 24.3128V17.2739ZM30.4284 38.9196C31.4456 38.7297 32.2729 38.2618 32.9104 37.5159C33.5478 36.7564 33.8665 35.868 33.8665 34.8509C33.8665 33.9422 33.5953 33.1623 33.0528 32.5113C32.5238 31.8468 31.6491 31.3382 30.4284 30.9856V38.9196Z" fill="white"/>
</svg>
