<svg width="24" height="25" viewBox="0 0 24 25" fill="none" xmlns="http://www.w3.org/2000/svg">
<path d="M21.2863 2.15901H17.5932V0.3125H15.7467V2.15901H8.36066V0.3125H6.51415V2.15901H2.82112C1.80554 2.15901 0.974609 2.98994 0.974609 4.00553V22.4707C0.974609 23.4862 1.80554 24.3172 2.82112 24.3172H21.2863C22.3018 24.3172 23.1328 23.4862 23.1328 22.4707V4.00553C23.1328 2.98994 22.3018 2.15901 21.2863 2.15901ZM21.2863 22.4707H2.82112V9.54507H21.2863V22.4707ZM21.2863 7.69855H2.82112V4.00553H6.51415V5.85204H8.36066V4.00553H15.7467V5.85204H17.5932V4.00553H21.2863V7.69855Z" fill="#9C9C9C"/>
<circle cx="7.53576" cy="13.6998" r="1.38489" fill="#9C9C9C"/>
<circle cx="7.53576" cy="19.2394" r="1.38489" fill="#9C9C9C"/>
<circle cx="14.9215" cy="13.6998" r="1.38489" fill="#9C9C9C"/>
</svg>
