<svg width="17" height="18" viewBox="0 0 17 18" fill="none" xmlns="http://www.w3.org/2000/svg">
<path d="M1.65446 15.0182H15.5046C15.7755 15.0183 16.0363 15.1212 16.2343 15.3062C16.4322 15.4912 16.5526 15.7444 16.5711 16.0147C16.5896 16.285 16.5047 16.5522 16.3338 16.7624C16.1628 16.9725 15.9184 17.11 15.65 17.1469L15.5046 17.1569H1.65446C1.38352 17.1568 1.12272 17.0539 0.924755 16.8689C0.726785 16.684 0.606404 16.4307 0.587938 16.1604C0.569471 15.8901 0.654295 15.6229 0.82527 15.4127C0.996245 15.2026 1.24062 15.0651 1.50903 15.0282L1.65446 15.0182ZM8.99578 0.324922L9.14121 0.314941C9.39961 0.314952 9.64927 0.408533 9.84402 0.578378C10.0388 0.748223 10.1654 0.982841 10.2006 1.23884L10.2105 1.38427L10.1579 9.93962L13.373 6.72592C13.5544 6.54466 13.7948 6.43458 14.0504 6.41573C14.3061 6.39689 14.5601 6.47054 14.766 6.62326L14.8858 6.72592C15.067 6.90724 15.1771 7.14765 15.196 7.40334C15.2148 7.65902 15.1412 7.91297 14.9884 8.1189L14.8858 8.23867L9.84424 13.2788C9.66318 13.4599 9.42315 13.57 9.16778 13.5891C8.91241 13.6082 8.65866 13.535 8.45268 13.3829L8.33291 13.2788L3.29137 8.23867C3.10004 8.04786 2.98804 7.7917 2.97789 7.52168C2.96773 7.25166 3.06018 6.98781 3.23664 6.78317C3.4131 6.57854 3.66049 6.44829 3.92906 6.41863C4.19764 6.38896 4.46749 6.46207 4.68435 6.62326L4.80412 6.72592L8.01924 9.94247L8.07188 1.38427C8.07189 1.12587 8.16547 0.876209 8.33531 0.681465C8.50516 0.48672 8.73978 0.360065 8.99578 0.324922Z" fill="white"/>
</svg>
