<svg width="17" height="18" viewBox="0 0 17 18" fill="none" xmlns="http://www.w3.org/2000/svg">
<path d="M1.24576 15.2105H15.0959C15.3668 15.2106 15.6276 15.3135 15.8256 15.4985C16.0235 15.6834 16.1439 15.9366 16.1624 16.2069C16.1809 16.4772 16.096 16.7445 15.9251 16.9546C15.7541 17.1648 15.5097 17.3022 15.2413 17.3392L15.0959 17.3492H1.24576C0.974833 17.3491 0.714033 17.2461 0.516063 17.0612C0.318093 16.8762 0.197713 16.623 0.179246 16.3527C0.16078 16.0824 0.245604 15.8152 0.416579 15.605C0.587554 15.3948 0.831932 15.2574 1.10033 15.2205L1.24576 15.2105ZM8.58709 0.517183L8.73252 0.507202C8.99092 0.507213 9.24058 0.600794 9.43533 0.770639C9.63007 0.940483 9.75673 1.1751 9.79187 1.4311L9.80185 1.57653L9.74922 10.1319L12.9643 6.91818C13.1457 6.73692 13.3861 6.62684 13.6418 6.60799C13.8974 6.58915 14.1514 6.6628 14.3573 6.81552L14.4771 6.91818C14.6583 7.0995 14.7684 7.33991 14.7873 7.5956C14.8061 7.85128 14.7325 8.10523 14.5797 8.31116L14.4771 8.43093L9.43555 13.471C9.25449 13.6521 9.01446 13.7623 8.75909 13.7814C8.50372 13.8005 8.24997 13.7273 8.04399 13.5751L7.92422 13.471L2.88268 8.43093C2.69135 8.24012 2.57935 7.98396 2.5692 7.71394C2.55904 7.44392 2.65149 7.18007 2.82795 6.97543C3.00441 6.7708 3.25179 6.64055 3.52037 6.61089C3.78895 6.58122 4.0588 6.65433 4.27566 6.81552L4.39543 6.91818L7.61055 10.1347L7.66319 1.57653C7.6632 1.31813 7.75678 1.06847 7.92662 0.873725C8.09647 0.678981 8.33109 0.552326 8.58709 0.517183Z" fill="#1EAAE7"/>
</svg>
