<svg width="27" height="31" viewBox="0 0 27 31" fill="none" xmlns="http://www.w3.org/2000/svg">
<path d="M17.5172 18.569C17.3343 18.5092 16.1787 17.9883 16.9008 15.7932H16.8905C18.7728 13.8545 20.2113 10.7348 20.2113 7.66348C20.2113 2.94091 17.071 0.46521 13.4213 0.46521C9.76925 0.46521 6.64617 2.93976 6.64617 7.66348C6.64617 10.7475 8.07662 13.8798 9.97048 15.8139C10.7087 17.7503 9.38864 18.4689 9.11267 18.569C5.29045 19.9523 0.805908 22.4717 0.805908 24.9589V25.8914C0.805908 29.2801 7.37634 30.0506 13.4569 30.0506C19.5467 30.0506 26.0344 29.2801 26.0344 25.8914V24.9589C26.0344 22.3969 21.528 19.8971 17.5172 18.569ZM11.1744 28.5833C11.1744 25.6523 13.0407 21.6955 13.0407 21.6955L11.7494 20.6825C11.7494 19.7143 13.4201 18.7012 13.4201 18.7012C13.4201 18.7012 15.0863 19.7304 15.0863 20.6825L13.7996 21.6955C13.7996 21.6955 15.6659 25.6373 15.6659 28.6155C15.6659 29.0824 11.1744 28.9743 11.1744 28.5833Z" fill="#BFBFBF"/>
</svg>
