<svg width="41" height="41" viewBox="0 0 41 41" fill="none" xmlns="http://www.w3.org/2000/svg">
<path d="M40.2284 16.168H38.6174V16.085H20.6174V24.085H31.9204C30.2714 28.742 25.8404 32.085 20.6174 32.085C13.9904 32.085 8.61743 26.712 8.61743 20.085C8.61743 13.458 13.9904 8.08496 20.6174 8.08496C23.6764 8.08496 26.4594 9.23896 28.5784 11.124L34.2354 5.46696C30.6634 2.13796 25.8854 0.0849609 20.6174 0.0849609C9.57243 0.0849609 0.617432 9.03996 0.617432 20.085C0.617432 31.13 9.57243 40.085 20.6174 40.085C31.6624 40.085 40.6174 31.13 40.6174 20.085C40.6174 18.744 40.4794 17.435 40.2284 16.168Z" fill="#FFC107"/>
<path d="M2.92346 10.776L9.49446 15.595C11.2725 11.193 15.5785 8.08496 20.6175 8.08496C23.6765 8.08496 26.4595 9.23896 28.5785 11.124L34.2355 5.46696C30.6635 2.13796 25.8855 0.0849609 20.6175 0.0849609C12.9355 0.0849609 6.27346 4.42196 2.92346 10.776Z" fill="#FF3D00"/>
<path d="M20.6174 40.0849C25.7834 40.0849 30.4774 38.1079 34.0264 34.8929L27.8364 29.6549C25.7609 31.2333 23.2248 32.087 20.6174 32.0849C15.4154 32.0849 10.9984 28.7679 9.33438 24.1389L2.81238 29.1639C6.12238 35.6409 12.8444 40.0849 20.6174 40.0849Z" fill="#4CAF50"/>
<path d="M40.2284 16.168H38.6174V16.085H20.6174V24.085H31.9204C31.1316 26.3014 29.7108 28.2381 27.8334 29.656L27.8364 29.654L34.0264 34.892C33.5884 35.29 40.6174 30.085 40.6174 20.085C40.6174 18.744 40.4794 17.435 40.2284 16.168Z" fill="#1976D2"/>
</svg>
