<svg width="28" height="28" viewBox="0 0 28 28" fill="none" xmlns="http://www.w3.org/2000/svg">
<path d="M21.3459 2.35691C20.05 1.52975 18.6025 0.923165 17.0446 0.564729C16.8433 0.520956 16.6347 0.522967 16.4342 0.570613C16.2337 0.618259 16.0465 0.710323 15.8864 0.840007C15.7263 0.969692 15.5974 1.13369 15.5091 1.31988C15.4208 1.50607 15.3755 1.70971 15.3765 1.91576C15.3765 2.53613 15.7901 3.11514 16.3967 3.253C17.6512 3.52872 18.8368 4.02502 19.8846 4.70053C20.4222 5.04518 21.1115 4.9349 21.5664 4.47996C22.1868 3.85959 22.0903 2.82564 21.3459 2.35691ZM26.0883 12.6275C26.9706 12.6275 27.6461 11.8141 27.4393 10.9594C27.0809 9.41535 26.4743 7.96782 25.6471 6.65815C25.1784 5.9137 24.1306 5.8172 23.5103 6.43757C23.0691 6.87872 22.9588 7.58181 23.2897 8.11946C23.9652 9.18099 24.4615 10.3528 24.7372 11.6073C24.8169 11.9034 24.993 12.1645 25.2377 12.3492C25.4824 12.534 25.7817 12.6319 26.0883 12.6275ZM23.5103 21.5746C24.1306 22.195 25.1784 22.0985 25.6471 21.3678C26.4743 20.0719 27.0809 18.6244 27.4393 17.0804C27.6323 16.2256 26.9568 15.4123 26.0883 15.4123C25.4679 15.4123 24.8889 15.8258 24.751 16.4324C24.4753 17.687 23.9652 18.8588 23.3035 19.9203C22.9588 20.4304 23.0691 21.1335 23.5103 21.5746ZM15.3765 26.0964C15.3765 26.9787 16.1899 27.6542 17.0446 27.4475C18.5887 27.089 20.0362 26.4824 21.3321 25.6553C22.0765 25.1866 22.173 24.1388 21.5527 23.5184C21.1115 23.0773 20.4084 22.967 19.8846 23.3117C18.8368 23.9872 17.665 24.4835 16.3967 24.7592C15.7901 24.897 15.3765 25.4623 15.3765 26.0964ZM15.3765 14.0061V8.49169C15.3765 7.73346 14.7562 7.11309 13.9979 7.11309C13.2397 7.11309 12.6193 7.73346 12.6193 8.49169V14.0061H10.4273C9.20039 14.0061 8.58002 15.495 9.44854 16.3635L13.0191 19.9341C13.5568 20.4717 14.4253 20.4717 14.9629 19.9341L18.5335 16.3635C19.402 15.495 18.7817 14.0061 17.5547 14.0061H15.3765ZM12.6193 26.0964C12.6193 26.9787 11.806 27.6542 10.9512 27.4612C4.80266 26.0689 0.211914 20.582 0.211914 14.0061C0.211914 7.43016 4.80266 1.94333 10.9512 0.564729C11.1526 0.520956 11.3612 0.522967 11.5616 0.570613C11.7621 0.618259 11.9493 0.710323 12.1094 0.840007C12.2696 0.969692 12.3985 1.13369 12.4868 1.31988C12.575 1.50607 12.6203 1.70971 12.6193 1.91576C12.6193 2.54991 12.192 3.11514 11.5716 3.253C6.64998 4.35588 2.96912 8.75362 2.96912 14.0061C2.96912 19.2586 6.64998 23.6563 11.5716 24.7592C12.192 24.897 12.6193 25.4623 12.6193 26.0964Z" fill="#2BC155"/>
</svg>
