<svg width="16" height="15" viewBox="0 0 16 15" fill="none" xmlns="http://www.w3.org/2000/svg">
<path d="M14.8975 3.3799C14.6647 2.84101 14.3291 2.35268 13.9095 1.94223C13.4895 1.53056 12.9944 1.20342 12.451 0.978582C11.8875 0.744515 11.2832 0.624706 10.673 0.626111C9.81702 0.626111 8.98186 0.860513 8.25608 1.30327C8.08245 1.40919 7.9175 1.52552 7.76123 1.65227C7.60496 1.52552 7.44001 1.40919 7.26638 1.30327C6.54061 0.860513 5.70544 0.626111 4.84944 0.626111C4.23305 0.626111 3.63576 0.74418 3.07146 0.978582C2.52626 1.2043 2.03488 1.52899 1.61296 1.94223C1.19277 2.35221 0.857107 2.84066 0.625001 3.3799C0.383654 3.94073 0.260376 4.53628 0.260376 5.1492C0.260376 5.72739 0.378445 6.32989 0.612847 6.9428C0.80905 7.45501 1.09033 7.98633 1.44975 8.52284C2.01926 9.3719 2.80233 10.2574 3.77467 11.1551C5.38596 12.6431 6.98163 13.671 7.04935 13.7127L7.46085 13.9766C7.64316 14.0929 7.87756 14.0929 8.05988 13.9766L8.47138 13.7127C8.5391 13.6693 10.133 12.6431 11.7461 11.1551C12.7184 10.2574 13.5015 9.3719 14.071 8.52284C14.4304 7.98633 14.7134 7.45501 14.9079 6.9428C15.1423 6.32989 15.2604 5.72739 15.2604 5.1492C15.2621 4.53628 15.1388 3.94073 14.8975 3.3799Z" fill="#FF0000"/>
</svg>
