<svg width="217" height="65" viewBox="0 0 217 65" fill="none" xmlns="http://www.w3.org/2000/svg">
<path d="M93.0986 40.3719C92.5466 40.3719 92.0666 40.1679 91.6586 39.7599C91.2506 39.3519 91.0466 38.8719 91.0466 38.3199V16.1439C91.0466 15.5919 91.2506 15.1119 91.6586 14.7039C92.0666 14.2959 92.5466 14.0919 93.0986 14.0919H93.9986C94.6226 14.0919 95.1986 14.2599 95.7266 14.5959C96.2546 14.9319 96.6386 15.3759 96.8786 15.9279L103.179 29.5359C103.179 29.5599 103.191 29.5719 103.215 29.5719C103.239 29.5719 103.251 29.5599 103.251 29.5359L109.551 15.9279C109.791 15.3759 110.175 14.9319 110.703 14.5959C111.231 14.2599 111.807 14.0919 112.431 14.0919H113.475C114.027 14.0919 114.507 14.2959 114.915 14.7039C115.323 15.1119 115.527 15.5919 115.527 16.1439V38.3199C115.527 38.8719 115.323 39.3519 114.915 39.7599C114.507 40.1679 114.027 40.3719 113.475 40.3719H112.683C112.131 40.3719 111.651 40.1679 111.243 39.7599C110.835 39.3519 110.631 38.8719 110.631 38.3199V22.6599C110.631 22.6359 110.619 22.6239 110.595 22.6239C110.571 22.6239 110.559 22.6359 110.559 22.6599L106.239 31.9119C105.975 32.4639 105.567 32.9199 105.015 33.2799C104.487 33.6159 103.923 33.7839 103.323 33.7839H103.107C102.507 33.7839 101.931 33.6159 101.379 33.2799C100.851 32.9199 100.455 32.4639 100.191 31.9119L95.8706 22.6599C95.8706 22.6359 95.8586 22.6239 95.8346 22.6239C95.8106 22.6239 95.7986 22.6359 95.7986 22.6599V38.3199C95.7986 38.8719 95.5946 39.3519 95.1866 39.7599C94.7786 40.1679 94.2986 40.3719 93.7466 40.3719H93.0986ZM138.419 27.2319C138.419 20.9919 136.139 17.8719 131.579 17.8719C127.019 17.8719 124.739 20.9919 124.739 27.2319C124.739 33.4719 127.019 36.5919 131.579 36.5919C136.139 36.5919 138.419 33.4719 138.419 27.2319ZM140.327 37.1679C138.191 39.5439 135.275 40.7319 131.579 40.7319C127.883 40.7319 124.955 39.5439 122.795 37.1679C120.659 34.7919 119.591 31.4799 119.591 27.2319C119.591 22.9839 120.659 19.6719 122.795 17.2959C124.955 14.9199 127.883 13.7319 131.579 13.7319C135.275 13.7319 138.191 14.9199 140.327 17.2959C142.487 19.6719 143.567 22.9839 143.567 27.2319C143.567 31.4799 142.487 34.7919 140.327 37.1679ZM152.616 18.1959V26.8719C152.616 27.0399 152.712 27.1479 152.904 27.1959C153.816 27.3159 154.704 27.3759 155.568 27.3759C157.512 27.3759 158.988 26.9559 159.996 26.1159C161.028 25.2519 161.544 24.0279 161.544 22.4439C161.544 19.2519 159.552 17.6559 155.568 17.6559C154.704 17.6559 153.816 17.7159 152.904 17.8359C152.712 17.8839 152.616 18.0039 152.616 18.1959ZM149.664 40.3719C149.112 40.3719 148.632 40.1679 148.224 39.7599C147.84 39.3519 147.648 38.8719 147.648 38.3199V16.3239C147.648 15.7479 147.84 15.2319 148.224 14.7759C148.608 14.3199 149.088 14.0679 149.664 14.0199C151.704 13.8279 153.672 13.7319 155.568 13.7319C159.168 13.7319 161.868 14.4519 163.668 15.8919C165.468 17.3079 166.368 19.3719 166.368 22.0839C166.368 25.0839 165.492 27.3519 163.74 28.8879C162.012 30.4239 159.444 31.1919 156.036 31.1919C155.244 31.1919 154.2 31.1439 152.904 31.0479C152.712 31.0479 152.616 31.1439 152.616 31.3359V38.3199C152.616 38.8719 152.412 39.3519 152.004 39.7599C151.596 40.1679 151.116 40.3719 150.564 40.3719H149.664ZM172.27 40.3719C171.718 40.3719 171.238 40.1679 170.83 39.7599C170.446 39.3519 170.254 38.8719 170.254 38.3199V16.1439C170.254 15.5919 170.446 15.1119 170.83 14.7039C171.238 14.2959 171.718 14.0919 172.27 14.0919H173.242C173.794 14.0919 174.274 14.2959 174.682 14.7039C175.09 15.1119 175.294 15.5919 175.294 16.1439V24.3159C175.294 24.5079 175.39 24.6039 175.582 24.6039H184.582C184.774 24.6039 184.87 24.5079 184.87 24.3159V16.1439C184.87 15.5919 185.074 15.1119 185.482 14.7039C185.89 14.2959 186.37 14.0919 186.922 14.0919H187.894C188.446 14.0919 188.914 14.2959 189.298 14.7039C189.706 15.1119 189.91 15.5919 189.91 16.1439V38.3199C189.91 38.8719 189.706 39.3519 189.298 39.7599C188.914 40.1679 188.446 40.3719 187.894 40.3719H186.922C186.37 40.3719 185.89 40.1679 185.482 39.7599C185.074 39.3519 184.87 38.8719 184.87 38.3199V28.7799C184.87 28.5639 184.774 28.4559 184.582 28.4559H175.582C175.39 28.4559 175.294 28.5639 175.294 28.7799V38.3199C175.294 38.8719 175.09 39.3519 174.682 39.7599C174.274 40.1679 173.794 40.3719 173.242 40.3719H172.27ZM201.649 29.6799L194.053 15.8919C193.837 15.5079 193.849 15.1119 194.089 14.7039C194.329 14.2959 194.677 14.0919 195.133 14.0919H196.861C197.485 14.0919 198.061 14.2599 198.589 14.5959C199.117 14.9319 199.513 15.3759 199.777 15.9279L204.457 25.8279C204.457 25.8519 204.469 25.8639 204.493 25.8639C204.517 25.8639 204.529 25.8519 204.529 25.8279L209.209 15.9279C209.473 15.3759 209.869 14.9319 210.397 14.5959C210.925 14.2599 211.501 14.0919 212.125 14.0919H213.709C214.165 14.0919 214.513 14.2959 214.753 14.7039C214.993 15.1119 215.005 15.5079 214.789 15.8919L207.193 29.6799C207.073 29.8719 207.013 30.0639 207.013 30.2559V38.3199C207.013 38.8719 206.809 39.3519 206.401 39.7599C206.017 40.1679 205.549 40.3719 204.997 40.3719H203.845C203.293 40.3719 202.813 40.1679 202.405 39.7599C202.021 39.3519 201.829 38.8719 201.829 38.3199V30.2559C201.829 30.0639 201.769 29.8719 201.649 29.6799Z" fill="#101F26"/>
<path d="M38.5923 62.3711L38.5947 62.364L38.5968 62.3569L44.7098 41.9847C45.1934 40.373 47.5566 40.6571 47.6445 42.3375L48.6644 61.8411C48.67 62.3118 48.9456 62.6688 49.3142 62.9177C49.6761 63.162 50.1761 63.3402 50.7733 63.4746C51.9748 63.7449 53.7386 63.8735 56.0393 63.8735C57.6109 63.8735 59.4096 63.7425 61.4331 63.4827C62.4502 63.3521 63.2553 63.178 63.8189 62.9464C64.1003 62.8308 64.3535 62.6882 64.543 62.5034C64.7406 62.3105 64.8821 62.0561 64.8821 61.749V61.738L64.8816 61.727L62.6418 10.9899C62.6378 10.6398 62.4674 10.352 62.2264 10.1338C61.9918 9.92144 61.6736 9.75722 61.3095 9.62397C60.58 9.35706 59.5266 9.16557 58.1782 9.0355C55.5415 8.725 53.2568 8.56854 51.3272 8.56854C47.9957 8.56854 45.4098 8.73613 43.587 9.08004C42.6772 9.25169 41.9311 9.47195 41.3702 9.75281C40.8169 10.0298 40.3722 10.4025 40.1945 10.9165L40.1919 10.9242L40.1894 10.9319L34.4001 29.6261C33.9732 31.0046 32.0365 31.0442 31.5537 29.6843L24.9163 10.9899L24.9163 10.9899L24.9133 10.9819C24.6786 10.3549 24.0447 9.94533 23.2637 9.66215C22.4605 9.37091 21.3714 9.16606 20.0174 9.03545C17.3302 8.72507 15.0454 8.56854 13.1669 8.56854C10.0178 8.56854 7.62212 8.72298 6.00215 9.04212C5.19656 9.20082 4.5424 9.40759 4.07737 9.68242C3.6139 9.95633 3.24709 10.3586 3.24279 10.9152L1.46653 61.1853C1.42787 61.9279 1.91776 62.4651 2.60002 62.8285C3.28174 63.1917 4.27034 63.4531 5.52443 63.6362L5.52443 63.6363L5.53193 63.6373C6.73859 63.7949 7.97045 63.8735 9.22732 63.8735C10.5452 63.8735 12.1658 63.7418 14.0837 63.4822L14.0837 63.4824L14.0968 63.4803C15.0713 63.322 15.8584 63.0978 16.4217 62.786C16.9885 62.4724 17.4094 62.0197 17.451 61.3955L17.4515 61.3876L17.4518 61.3798L18.1154 42.4405C18.1746 40.7488 20.5532 40.4354 21.0487 42.054L27.2819 62.415C27.3646 62.781 27.6713 62.9929 27.9299 63.115C28.2163 63.2502 28.5939 63.3481 29.0363 63.4219C29.9276 63.5707 31.2096 63.6415 32.8651 63.6415C34.522 63.6415 35.8183 63.5642 36.7372 63.4018C37.1947 63.3209 37.5855 63.2146 37.888 63.0711C38.1783 62.9334 38.4767 62.7186 38.5923 62.3711Z" stroke="#1EAAE7"/>
<path d="M56.3634 63.3736C51.9581 63.3736 49.7554 62.8786 49.7554 61.8886L48.7979 43.6049C48.6806 41.3648 45.5308 40.9857 44.8852 43.1339L39.138 62.2598C38.94 62.8538 37.2571 63.1508 34.0892 63.1508C30.9213 63.1508 29.2879 62.8786 29.1889 62.3341L23.3268 43.2124C22.6654 41.0551 19.495 41.4734 19.4159 43.7285L18.7943 61.4431C18.7448 62.1856 17.8043 62.7053 15.9729 63.0023C14.1415 63.2498 12.607 63.3736 11.3696 63.3736C10.1816 63.3736 9.01839 63.2993 7.87993 63.1508C5.50402 62.8043 4.34081 62.1856 4.39031 61.2946L6.098 13.0339C6.098 11.8459 9.11739 11.252 15.1562 11.252C16.9381 11.252 19.116 11.4004 21.6899 11.6974C24.2638 11.9449 25.6993 12.4647 25.9963 13.2566L32.298 30.9802C32.9423 32.7923 35.523 32.7395 36.0927 30.9026L41.5882 13.1824C42.0337 11.8954 45.4491 11.252 51.8343 11.252C53.6658 11.252 55.8437 11.4004 58.3681 11.6974C60.942 11.9449 62.2289 12.4152 62.2289 13.1081L64.3821 61.8144C64.3821 62.3588 63.4169 62.7548 61.4865 63.0023C59.556 63.2498 57.8484 63.3736 56.3634 63.3736Z" fill="#1CAAE8"/>
<path d="M91.5126 49.6739V53.7899C91.5126 53.8646 91.5546 53.9113 91.6386 53.9299C92.0866 53.9953 92.5906 54.0279 93.1506 54.0279C94.0746 54.0279 94.7793 53.8273 95.2646 53.4259C95.7593 53.0246 96.0066 52.4506 96.0066 51.7039C96.0066 50.9573 95.764 50.3926 95.2786 50.0099C94.8026 49.6179 94.0933 49.4219 93.1506 49.4219C92.6466 49.4219 92.1426 49.4593 91.6386 49.5339C91.5546 49.5526 91.5126 49.5993 91.5126 49.6739ZM91.3446 58.7039C91.242 58.8159 91.1113 58.8719 90.9526 58.8719C90.794 58.8719 90.6586 58.8159 90.5466 58.7039C90.444 58.5919 90.3926 58.4613 90.3926 58.3119V49.5199C90.3926 49.2959 90.4673 49.0999 90.6166 48.9319C90.766 48.7546 90.9526 48.6519 91.1766 48.6239C91.8953 48.5493 92.5813 48.5119 93.2346 48.5119C94.504 48.5119 95.4653 48.7826 96.1186 49.3239C96.7813 49.8559 97.1126 50.6213 97.1126 51.6199C97.1126 52.7026 96.7813 53.5239 96.1186 54.0839C95.456 54.6439 94.4946 54.9239 93.2346 54.9239C92.7306 54.9239 92.1986 54.9006 91.6386 54.8539C91.5546 54.8539 91.5126 54.8866 91.5126 54.9519V58.3119C91.5126 58.4613 91.4566 58.5919 91.3446 58.7039ZM101.902 55.0219C100.978 55.0219 100.278 55.1713 99.8017 55.4699C99.3351 55.7686 99.1017 56.1886 99.1017 56.7299C99.1017 57.1499 99.2184 57.4906 99.4517 57.7519C99.6944 58.0039 100.012 58.1299 100.404 58.1299C101.076 58.1299 101.631 57.9059 102.07 57.4579C102.518 57.0099 102.742 56.4173 102.742 55.6799V55.1479C102.742 55.0639 102.7 55.0219 102.616 55.0219H101.902ZM100.18 59.0119C99.5451 59.0119 99.0271 58.8113 98.6257 58.4099C98.2244 58.0086 98.0237 57.4766 98.0237 56.8139C98.0237 56.0393 98.3317 55.4186 98.9477 54.9519C99.5637 54.4853 100.548 54.2519 101.902 54.2519H102.616C102.7 54.2519 102.742 54.2146 102.742 54.1399V53.8739C102.742 53.3046 102.611 52.9079 102.35 52.6839C102.088 52.4506 101.626 52.3339 100.964 52.3339C100.32 52.3339 99.6244 52.4553 98.8777 52.6979C98.7657 52.7353 98.6631 52.7213 98.5697 52.6559C98.4764 52.5906 98.4297 52.4973 98.4297 52.3759C98.4297 52.0493 98.5837 51.8393 98.8917 51.7459C99.5824 51.5499 100.273 51.4519 100.964 51.4519C102.037 51.4519 102.779 51.6479 103.19 52.0399C103.61 52.4319 103.82 53.1366 103.82 54.1539V58.3679C103.82 58.5079 103.768 58.6293 103.666 58.7319C103.572 58.8253 103.456 58.8719 103.316 58.8719C103.176 58.8719 103.054 58.8253 102.952 58.7319C102.849 58.6293 102.798 58.5079 102.798 58.3679L102.784 57.6399C102.784 57.6306 102.779 57.6259 102.77 57.6259C102.751 57.6259 102.742 57.6353 102.742 57.6539C102.191 58.5593 101.337 59.0119 100.18 59.0119ZM107.402 58.7039L104.952 52.1239C104.906 51.9933 104.92 51.8719 104.994 51.7599C105.078 51.6479 105.19 51.5919 105.33 51.5919C105.498 51.5919 105.648 51.6433 105.778 51.7459C105.918 51.8393 106.016 51.9653 106.072 52.1239L107.99 57.5699C107.99 57.5793 107.995 57.5839 108.004 57.5839C108.023 57.5839 108.032 57.5793 108.032 57.5699L110.146 52.0959C110.202 51.9466 110.296 51.8253 110.426 51.7319C110.566 51.6386 110.72 51.5919 110.888 51.5919C111.019 51.5919 111.117 51.6479 111.182 51.7599C111.257 51.8626 111.271 51.9746 111.224 52.0959L107.374 61.4479C107.309 61.5973 107.206 61.7186 107.066 61.8119C106.936 61.9053 106.786 61.9519 106.618 61.9519C106.488 61.9519 106.39 61.8959 106.324 61.7839C106.259 61.6813 106.25 61.5693 106.296 61.4479L107.402 58.9279C107.43 58.8533 107.43 58.7786 107.402 58.7039ZM113.667 58.7179C113.564 58.8206 113.438 58.8719 113.289 58.8719C113.14 58.8719 113.009 58.8206 112.897 58.7179C112.794 58.6153 112.743 58.4893 112.743 58.3399V52.1099C112.743 51.9699 112.794 51.8486 112.897 51.7459C113 51.6433 113.121 51.5919 113.261 51.5919C113.401 51.5919 113.522 51.6433 113.625 51.7459C113.728 51.8486 113.779 51.9699 113.779 52.1099L113.793 52.5719C113.793 52.5813 113.798 52.5859 113.807 52.5859C113.826 52.5859 113.835 52.5766 113.835 52.5579C114.367 51.8206 115.002 51.4519 115.739 51.4519C116.187 51.4519 116.546 51.5499 116.817 51.7459C117.097 51.9419 117.326 52.2686 117.503 52.7259C117.503 52.7446 117.508 52.7539 117.517 52.7539C117.536 52.7539 117.545 52.7446 117.545 52.7259C118.068 51.8766 118.749 51.4519 119.589 51.4519C120.336 51.4519 120.872 51.6666 121.199 52.0959C121.535 52.5253 121.703 53.2439 121.703 54.2519V58.3399C121.703 58.4893 121.652 58.6153 121.549 58.7179C121.456 58.8206 121.334 58.8719 121.185 58.8719C121.036 58.8719 120.91 58.8206 120.807 58.7179C120.704 58.6153 120.653 58.4893 120.653 58.3399V54.5319C120.653 53.6639 120.55 53.0759 120.345 52.7679C120.149 52.4506 119.799 52.2919 119.295 52.2919C118.95 52.2919 118.609 52.4786 118.273 52.8519C117.937 53.2159 117.769 53.5939 117.769 53.9859V58.3399C117.769 58.4893 117.718 58.6153 117.615 58.7179C117.512 58.8206 117.386 58.8719 117.237 58.8719C117.088 58.8719 116.962 58.8206 116.859 58.7179C116.756 58.6153 116.705 58.4893 116.705 58.3399V54.5319C116.705 53.6639 116.602 53.0759 116.397 52.7679C116.201 52.4506 115.856 52.2919 115.361 52.2919C115.016 52.2919 114.67 52.4786 114.325 52.8519C113.989 53.2159 113.821 53.5939 113.821 53.9859V58.3399C113.821 58.4893 113.77 58.6153 113.667 58.7179ZM126.465 52.2639C125.168 52.2639 124.458 53.0339 124.337 54.5739C124.337 54.6486 124.379 54.6859 124.463 54.6859H128.229C128.304 54.6859 128.341 54.6486 128.341 54.5739C128.285 53.0339 127.66 52.2639 126.465 52.2639ZM126.759 59.0119C125.611 59.0119 124.738 58.6993 124.141 58.0739C123.544 57.4393 123.245 56.4919 123.245 55.2319C123.245 53.9346 123.53 52.9826 124.099 52.3759C124.678 51.7599 125.466 51.4519 126.465 51.4519C128.304 51.4519 129.279 52.5393 129.391 54.7139C129.4 54.9379 129.321 55.1293 129.153 55.2879C128.994 55.4373 128.803 55.5119 128.579 55.5119H124.435C124.36 55.5119 124.323 55.5539 124.323 55.6379C124.407 57.3459 125.252 58.1999 126.857 58.1999C127.389 58.1999 127.935 58.1019 128.495 57.9059C128.598 57.8686 128.696 57.8826 128.789 57.9479C128.882 58.0039 128.929 58.0879 128.929 58.1999C128.929 58.5173 128.784 58.7133 128.495 58.7879C127.898 58.9373 127.319 59.0119 126.759 59.0119ZM131.987 58.7179C131.884 58.8206 131.758 58.8719 131.609 58.8719C131.46 58.8719 131.334 58.8206 131.231 58.7179C131.128 58.6153 131.077 58.4893 131.077 58.3399V52.0959C131.077 51.9559 131.124 51.8393 131.217 51.7459C131.32 51.6433 131.441 51.5919 131.581 51.5919C131.721 51.5919 131.842 51.6433 131.945 51.7459C132.048 51.8393 132.099 51.9559 132.099 52.0959V52.6699C132.099 52.6793 132.104 52.6839 132.113 52.6839C132.122 52.6839 132.132 52.6793 132.141 52.6699C132.813 51.8579 133.611 51.4519 134.535 51.4519C135.384 51.4519 136 51.6899 136.383 52.1659C136.766 52.6419 136.957 53.4306 136.957 54.5319V58.3399C136.957 58.4893 136.906 58.6153 136.803 58.7179C136.71 58.8206 136.588 58.8719 136.439 58.8719C136.29 58.8719 136.164 58.8206 136.061 58.7179C135.958 58.6153 135.907 58.4893 135.907 58.3399V54.6719C135.907 53.7479 135.781 53.1226 135.529 52.7959C135.277 52.4599 134.852 52.2919 134.255 52.2919C133.77 52.2919 133.298 52.5206 132.841 52.9779C132.384 53.4259 132.155 53.8879 132.155 54.3639V58.3399C132.155 58.4893 132.099 58.6153 131.987 58.7179ZM138.789 52.7119C138.668 52.7119 138.565 52.6746 138.481 52.5999C138.407 52.5159 138.369 52.4133 138.369 52.2919C138.369 52.1706 138.407 52.0726 138.481 51.9979C138.565 51.9139 138.668 51.8719 138.789 51.8719H139.811C139.895 51.8719 139.937 51.8299 139.937 51.7459V49.7439C139.937 49.5946 139.989 49.4686 140.091 49.3659C140.194 49.2633 140.32 49.2119 140.469 49.2119C140.619 49.2119 140.745 49.2633 140.847 49.3659C140.95 49.4686 141.001 49.5946 141.001 49.7439V51.7459C141.001 51.8299 141.043 51.8719 141.127 51.8719H143.227C143.349 51.8719 143.447 51.9139 143.521 51.9979C143.605 52.0726 143.647 52.1706 143.647 52.2919C143.647 52.4133 143.605 52.5159 143.521 52.5999C143.447 52.6746 143.349 52.7119 143.227 52.7119H141.127C141.043 52.7119 141.001 52.7539 141.001 52.8379V56.5339C141.001 57.2059 141.09 57.6493 141.267 57.8639C141.445 58.0693 141.785 58.1719 142.289 58.1719C142.588 58.1719 142.835 58.1486 143.031 58.1019C143.134 58.0833 143.227 58.1066 143.311 58.1719C143.405 58.2279 143.451 58.3073 143.451 58.4099C143.451 58.5406 143.409 58.6573 143.325 58.7599C143.251 58.8626 143.153 58.9233 143.031 58.9419C142.789 58.9886 142.481 59.0119 142.107 59.0119C141.286 59.0119 140.717 58.8439 140.399 58.5079C140.091 58.1626 139.937 57.5373 139.937 56.6319V52.8379C139.937 52.7539 139.895 52.7119 139.811 52.7119H138.789ZM152.964 49.6739L151.256 54.8819C151.247 54.9099 151.252 54.9379 151.27 54.9659C151.289 54.9846 151.312 54.9939 151.34 54.9939H154.63C154.658 54.9939 154.677 54.9846 154.686 54.9659C154.705 54.9379 154.714 54.9099 154.714 54.8819L153.006 49.6739C153.006 49.6646 153.002 49.6599 152.992 49.6599C152.974 49.6599 152.964 49.6646 152.964 49.6739ZM149.366 58.8719C149.226 58.8719 149.114 58.8159 149.03 58.7039C148.946 58.5826 148.928 58.4566 148.974 58.3259L152.166 49.2399C152.232 49.0626 152.339 48.9226 152.488 48.8199C152.647 48.7079 152.82 48.6519 153.006 48.6519C153.193 48.6519 153.361 48.7079 153.51 48.8199C153.669 48.9226 153.781 49.0626 153.846 49.2399L157.024 58.3119C157.071 58.4519 157.052 58.5826 156.968 58.7039C156.884 58.8159 156.772 58.8719 156.632 58.8719C156.446 58.8719 156.278 58.8206 156.128 58.7179C155.988 58.6059 155.89 58.4659 155.834 58.2979L155.092 56.0019C155.064 55.9273 155.008 55.8899 154.924 55.8899H151.046C150.972 55.8899 150.92 55.9273 150.892 56.0019L150.122 58.3259C150.066 58.4939 149.968 58.6293 149.828 58.7319C149.698 58.8253 149.544 58.8719 149.366 58.8719ZM161.069 52.2919C159.669 52.2919 158.969 53.2719 158.969 55.2319C158.969 56.2026 159.151 56.9353 159.515 57.4299C159.888 57.9246 160.406 58.1719 161.069 58.1719C161.61 58.1719 162.096 57.9853 162.525 57.6119C162.954 57.2293 163.169 56.7953 163.169 56.3099V54.1539C163.169 53.6779 162.954 53.2486 162.525 52.8659C162.105 52.4833 161.62 52.2919 161.069 52.2919ZM160.845 59.0119C159.977 59.0119 159.268 58.6759 158.717 58.0039C158.176 57.3226 157.905 56.3986 157.905 55.2319C157.905 54.0279 158.166 53.0993 158.689 52.4459C159.221 51.7833 159.94 51.4519 160.845 51.4519C161.76 51.4519 162.52 51.8113 163.127 52.5299C163.136 52.5393 163.146 52.5439 163.155 52.5439C163.164 52.5439 163.169 52.5393 163.169 52.5299V48.9039C163.169 48.7546 163.22 48.6286 163.323 48.5259C163.435 48.4233 163.566 48.3719 163.715 48.3719C163.864 48.3719 163.99 48.4233 164.093 48.5259C164.196 48.6286 164.247 48.7546 164.247 48.9039V58.3679C164.247 58.5079 164.196 58.6293 164.093 58.7319C164 58.8253 163.883 58.8719 163.743 58.8719C163.603 58.8719 163.482 58.8253 163.379 58.7319C163.276 58.6293 163.225 58.5079 163.225 58.3679V57.8499C163.225 57.8406 163.22 57.8359 163.211 57.8359C163.202 57.8359 163.192 57.8406 163.183 57.8499C162.558 58.6246 161.778 59.0119 160.845 59.0119ZM167.343 58.7179C167.24 58.8206 167.114 58.8719 166.965 58.8719C166.815 58.8719 166.685 58.8206 166.573 58.7179C166.47 58.6153 166.419 58.4893 166.419 58.3399V52.1099C166.419 51.9699 166.47 51.8486 166.573 51.7459C166.675 51.6433 166.797 51.5919 166.937 51.5919C167.077 51.5919 167.198 51.6433 167.301 51.7459C167.403 51.8486 167.455 51.9699 167.455 52.1099L167.469 52.5719C167.469 52.5813 167.473 52.5859 167.483 52.5859C167.501 52.5859 167.511 52.5766 167.511 52.5579C168.043 51.8206 168.677 51.4519 169.415 51.4519C169.863 51.4519 170.222 51.5499 170.493 51.7459C170.773 51.9419 171.001 52.2686 171.179 52.7259C171.179 52.7446 171.183 52.7539 171.193 52.7539C171.211 52.7539 171.221 52.7446 171.221 52.7259C171.743 51.8766 172.425 51.4519 173.265 51.4519C174.011 51.4519 174.548 51.6666 174.875 52.0959C175.211 52.5253 175.379 53.2439 175.379 54.2519V58.3399C175.379 58.4893 175.327 58.6153 175.225 58.7179C175.131 58.8206 175.01 58.8719 174.861 58.8719C174.711 58.8719 174.585 58.8206 174.483 58.7179C174.38 58.6153 174.329 58.4893 174.329 58.3399V54.5319C174.329 53.6639 174.226 53.0759 174.021 52.7679C173.825 52.4506 173.475 52.2919 172.971 52.2919C172.625 52.2919 172.285 52.4786 171.949 52.8519C171.613 53.2159 171.445 53.5939 171.445 53.9859V58.3399C171.445 58.4893 171.393 58.6153 171.291 58.7179C171.188 58.8206 171.062 58.8719 170.913 58.8719C170.763 58.8719 170.637 58.8206 170.535 58.7179C170.432 58.6153 170.381 58.4893 170.381 58.3399V54.5319C170.381 53.6639 170.278 53.0759 170.073 52.7679C169.877 52.4506 169.531 52.2919 169.037 52.2919C168.691 52.2919 168.346 52.4786 168.001 52.8519C167.665 53.2159 167.497 53.5939 167.497 53.9859V58.3399C167.497 58.4893 167.445 58.6153 167.343 58.7179ZM178.923 58.7039C178.82 58.8159 178.69 58.8719 178.531 58.8719C178.372 58.8719 178.237 58.8159 178.125 58.7039C178.022 58.5919 177.971 58.4613 177.971 58.3119V52.1519C177.971 52.0026 178.022 51.8719 178.125 51.7599C178.237 51.6479 178.372 51.5919 178.531 51.5919C178.69 51.5919 178.82 51.6479 178.923 51.7599C179.035 51.8719 179.091 52.0026 179.091 52.1519V58.3119C179.091 58.4613 179.035 58.5919 178.923 58.7039ZM178.923 49.7159C178.82 49.8186 178.69 49.8699 178.531 49.8699C178.372 49.8699 178.237 49.8186 178.125 49.7159C178.022 49.6039 177.971 49.4686 177.971 49.3099V48.9319C177.971 48.7826 178.022 48.6519 178.125 48.5399C178.237 48.4279 178.372 48.3719 178.531 48.3719C178.69 48.3719 178.82 48.4279 178.923 48.5399C179.035 48.6519 179.091 48.7826 179.091 48.9319V49.3099C179.091 49.4686 179.035 49.6039 178.923 49.7159ZM182.655 58.7179C182.552 58.8206 182.426 58.8719 182.277 58.8719C182.127 58.8719 182.001 58.8206 181.899 58.7179C181.796 58.6153 181.745 58.4893 181.745 58.3399V52.0959C181.745 51.9559 181.791 51.8393 181.885 51.7459C181.987 51.6433 182.109 51.5919 182.249 51.5919C182.389 51.5919 182.51 51.6433 182.613 51.7459C182.715 51.8393 182.767 51.9559 182.767 52.0959V52.6699C182.767 52.6793 182.771 52.6839 182.781 52.6839C182.79 52.6839 182.799 52.6793 182.809 52.6699C183.481 51.8579 184.279 51.4519 185.203 51.4519C186.052 51.4519 186.668 51.6899 187.051 52.1659C187.433 52.6419 187.625 53.4306 187.625 54.5319V58.3399C187.625 58.4893 187.573 58.6153 187.471 58.7179C187.377 58.8206 187.256 58.8719 187.107 58.8719C186.957 58.8719 186.831 58.8206 186.729 58.7179C186.626 58.6153 186.575 58.4893 186.575 58.3399V54.6719C186.575 53.7479 186.449 53.1226 186.197 52.7959C185.945 52.4599 185.52 52.2919 184.923 52.2919C184.437 52.2919 183.966 52.5206 183.509 52.9779C183.051 53.4259 182.823 53.8879 182.823 54.3639V58.3399C182.823 58.4893 182.767 58.6153 182.655 58.7179Z" fill="#8FA9B6"/>
</svg>
