<svg width="23" height="26" viewBox="0 0 23 26" fill="none" xmlns="http://www.w3.org/2000/svg">
<path d="M6.41286 19.0784V15.323H15.1756V10.3157H6.41286V6.56025L0.153763 12.8193L6.41286 19.0784ZM8.9165 0.301147C8.2525 0.301147 7.61569 0.564923 7.14616 1.03445C6.67664 1.50397 6.41286 2.14078 6.41286 2.80479V5.30843H8.9165V2.80479H20.1829V22.8339H8.9165V20.3303H6.41286V22.8339C6.41286 23.4979 6.67664 24.1347 7.14616 24.6042C7.61569 25.0738 8.2525 25.3375 8.9165 25.3375H20.1829C20.8469 25.3375 21.4837 25.0738 21.9532 24.6042C22.4227 24.1347 22.6865 23.4979 22.6865 22.8339V2.80479C22.6865 2.14078 22.4227 1.50397 21.9532 1.03445C21.4837 0.564923 20.8469 0.301147 20.1829 0.301147H8.9165Z" fill="#BFBFBF"/>
</svg>
