<svg width="26" height="28" viewBox="0 0 26 28" fill="none" xmlns="http://www.w3.org/2000/svg">
<path d="M25.4113 24.2446C24.611 23.4705 23.9103 22.5831 23.3281 21.6063C22.6925 20.2579 22.3116 18.7853 22.2076 17.275V12.8267C22.2131 10.4546 21.42 8.16185 19.9773 6.37938C18.5346 4.59691 16.5416 3.44737 14.3727 3.14674V1.98514C14.3727 1.66632 14.256 1.36055 14.0482 1.13511C13.8404 0.909672 13.5586 0.78302 13.2647 0.78302C12.9709 0.78302 12.689 0.909672 12.4812 1.13511C12.2735 1.36055 12.1567 1.66632 12.1567 1.98514V3.16475C10.0073 3.48705 8.03839 4.64354 6.61463 6.42002C5.19087 8.19651 4.40874 10.4726 4.41312 12.8267V17.275C4.30917 18.7853 3.92823 20.2579 3.29266 21.6063C2.72071 22.5809 2.03127 23.4682 1.24264 24.2446C1.15411 24.329 1.08315 24.4329 1.0345 24.5493C0.985841 24.6658 0.960598 24.7921 0.960449 24.92V26.1446C0.960449 26.3834 1.04789 26.6125 1.20354 26.7813C1.35919 26.9502 1.5703 27.0451 1.79042 27.0451H24.8635C25.0837 27.0451 25.2948 26.9502 25.4504 26.7813C25.6061 26.6125 25.6935 26.3834 25.6935 26.1446V24.92C25.6934 24.7921 25.6681 24.6658 25.6195 24.5493C25.5708 24.4329 25.4998 24.329 25.4113 24.2446ZM2.68678 25.2441C3.45899 24.4348 4.13889 23.5279 4.71191 22.5427C5.5125 20.9142 5.97963 19.1174 6.08135 17.275V12.8267C6.04844 11.7714 6.2116 10.7197 6.56111 9.73424C6.91063 8.74876 7.43936 7.84967 8.11581 7.0905C8.79226 6.33134 9.60261 5.72762 10.4986 5.3153C11.3946 4.90299 12.3579 4.6905 13.3311 4.6905C14.3044 4.6905 15.2677 4.90299 16.1637 5.3153C17.0596 5.72762 17.87 6.33134 18.5464 7.0905C19.2229 7.84967 19.7516 8.74876 20.1011 9.73424C20.4507 10.7197 20.6138 11.7714 20.5809 12.8267V17.275C20.6826 19.1174 21.1497 20.9142 21.9503 22.5427C22.5234 23.5279 23.2033 24.4348 23.9755 25.2441H2.68678Z" fill="black"/>
</svg>
