<svg width="33" height="33" viewBox="0 0 33 33" fill="none" xmlns="http://www.w3.org/2000/svg">
<path d="M14.5978 10.0736H24.254C24.6808 10.0736 25.0901 9.90459 25.3919 9.60374C25.6938 9.30289 25.8633 8.89485 25.8633 8.46939C25.8633 8.04392 25.6938 7.63588 25.3919 7.33503C25.0901 7.03418 24.6808 6.86517 24.254 6.86517H14.5978C14.171 6.86517 13.7616 7.03418 13.4598 7.33503C13.158 7.63588 12.9884 8.04392 12.9884 8.46939C12.9884 8.89485 13.158 9.30289 13.4598 9.60374C13.7616 9.90459 14.171 10.0736 14.5978 10.0736ZM21.0352 19.6989H17.8165C17.3897 19.6989 16.9803 19.8679 16.6785 20.1688C16.3767 20.4696 16.2072 20.8777 16.2072 21.3031C16.2072 21.7286 16.3767 22.1367 16.6785 22.4375C16.9803 22.7384 17.3897 22.9074 17.8165 22.9074H21.0352C21.4621 22.9074 21.8714 22.7384 22.1732 22.4375C22.475 22.1367 22.6446 21.7286 22.6446 21.3031C22.6446 20.8777 22.475 20.4696 22.1732 20.1688C21.8714 19.8679 21.4621 19.6989 21.0352 19.6989ZM1.72289 16.4905H6.55098V30.9285C6.54985 31.2111 6.62368 31.4891 6.76499 31.7342C6.9063 31.9793 7.11007 32.1828 7.35566 32.3241C7.60032 32.4649 7.87784 32.5391 8.16034 32.5391C8.44284 32.5391 8.72037 32.4649 8.96502 32.3241L13.7931 29.5649L18.6212 32.3241C18.8658 32.4649 19.1434 32.5391 19.4259 32.5391C19.7084 32.5391 19.9859 32.4649 20.2306 32.3241L25.0586 29.5649L29.8867 32.3241C30.1314 32.4649 30.4089 32.5391 30.6914 32.5391C30.9739 32.5391 31.2514 32.4649 31.4961 32.3241C31.7417 32.1828 31.9455 31.9793 32.0868 31.7342C32.2281 31.4891 32.3019 31.2111 32.3008 30.9285V5.26094C32.3008 3.98455 31.7921 2.76043 30.8867 1.85788C29.9812 0.955332 28.7532 0.448284 27.4727 0.448284H4.94162C3.66113 0.448284 2.43309 0.955332 1.52765 1.85788C0.622206 2.76043 0.113533 3.98455 0.113533 5.26094V14.8863C0.113533 15.3117 0.283089 15.7198 0.584904 16.0206C0.886717 16.3215 1.29607 16.4905 1.72289 16.4905ZM27.4727 3.65672C27.8995 3.65672 28.3089 3.82574 28.6107 4.12659C28.9125 4.42744 29.082 4.83548 29.082 5.26094V28.1532L25.8633 26.3244C25.6149 26.195 25.3389 26.1275 25.0586 26.1275C24.7784 26.1275 24.5023 26.195 24.254 26.3244L19.4259 29.0836L14.5978 26.3244C14.3494 26.195 14.0733 26.1275 13.7931 26.1275C13.5129 26.1275 13.2368 26.195 12.9884 26.3244L9.7697 28.1532V5.26094C9.76535 4.71368 9.66739 4.17116 9.48002 3.65672H27.4727ZM3.33226 5.26094C3.33226 4.83548 3.50181 4.42744 3.80363 4.12659C4.10544 3.82574 4.51479 3.65672 4.94162 3.65672C5.36845 3.65672 5.7778 3.82574 6.07961 4.12659C6.38142 4.42744 6.55098 4.83548 6.55098 5.26094V13.282H3.33226V5.26094ZM14.5978 16.4905H24.254C24.6808 16.4905 25.0901 16.3215 25.3919 16.0206C25.6938 15.7198 25.8633 15.3117 25.8633 14.8863C25.8633 14.4608 25.6938 14.0528 25.3919 13.7519C25.0901 13.4511 24.6808 13.282 24.254 13.282H14.5978C14.171 13.282 13.7616 13.4511 13.4598 13.7519C13.158 14.0528 12.9884 14.4608 12.9884 14.8863C12.9884 15.3117 13.158 15.7198 13.4598 16.0206C13.7616 16.3215 14.171 16.4905 14.5978 16.4905Z" fill="#F9501A"/>
</svg>
