<svg width="35" height="35" viewBox="0 0 35 35" fill="none" xmlns="http://www.w3.org/2000/svg">
<path d="M14.022 16.5419C13.7011 16.2211 13.266 16.0408 12.8123 16.0408C12.3586 16.0408 11.9235 16.2211 11.6026 16.5419C11.2818 16.8627 11.1016 17.2978 11.1016 17.7516C11.1016 18.2053 11.2818 18.6404 11.6026 18.9612L16.7139 24.0725C16.8731 24.2304 17.0619 24.3554 17.2695 24.4401C17.4771 24.5249 17.6994 24.5679 17.9236 24.5666C18.1568 24.5592 18.3861 24.504 18.5971 24.4043C18.8081 24.3047 18.9964 24.1628 19.1503 23.9873L31.0767 10.3572C31.352 10.0153 31.4848 9.58032 31.4473 9.14291C31.4098 8.70551 31.2049 8.29946 30.8753 8.00944C30.5458 7.71942 30.117 7.56781 29.6783 7.58622C29.2397 7.60462 28.8251 7.79163 28.521 8.10825L17.9236 20.3754L14.022 16.5419Z" fill="#2BC156"/>
<path d="M33.2596 16.0477C32.8077 16.0477 32.3744 16.2273 32.0548 16.5468C31.7353 16.8663 31.5558 17.2996 31.5558 17.7515C31.5558 21.3664 30.1198 24.8333 27.5637 27.3895C25.0075 29.9456 21.5406 31.3816 17.9257 31.3816C15.2339 31.3804 12.6027 30.5822 10.364 29.0876C8.12525 27.593 6.37917 25.469 5.34593 22.9834C4.31269 20.4978 4.03857 17.7619 4.55812 15.1207C5.07767 12.4795 6.36764 10.0513 8.26536 8.14228C9.52734 6.86341 11.0317 5.84908 12.6905 5.15867C14.3492 4.46826 16.129 4.11562 17.9257 4.1214C19.0152 4.12822 20.1007 4.2539 21.1629 4.49622C21.3851 4.56498 21.6192 4.58748 21.8505 4.56233C22.0818 4.53718 22.3055 4.46492 22.5078 4.35C22.7101 4.23509 22.8868 4.07995 23.0268 3.89415C23.1669 3.70836 23.2674 3.49584 23.3222 3.26971C23.377 3.04357 23.3849 2.80862 23.3454 2.57932C23.3059 2.35002 23.2198 2.13124 23.0925 1.93647C22.9652 1.7417 22.7994 1.57507 22.6052 1.44685C22.4111 1.31862 22.1927 1.23152 21.9636 1.19092C20.6401 0.879546 19.2854 0.719502 17.9257 0.713867C14.5596 0.731354 11.2742 1.74553 8.48395 3.62842C5.69371 5.5113 3.52374 8.17851 2.24787 11.2934C0.972001 14.4084 0.647419 17.8315 1.31508 21.1307C1.98275 24.4299 3.61274 27.4574 5.99935 29.8312C9.16272 32.996 13.451 34.7787 17.9257 34.7892C22.4444 34.7892 26.778 32.9941 29.9731 29.7989C33.1683 26.6038 34.9634 22.2702 34.9634 17.7515C34.9634 17.2996 34.7839 16.8663 34.4643 16.5468C34.1448 16.2273 33.7115 16.0477 33.2596 16.0477Z" fill="#2BC156"/>
</svg>
