<svg width="35" height="35" viewBox="0 0 35 35" fill="none" xmlns="http://www.w3.org/2000/svg">
<path d="M13.522 16.5419C13.2011 16.2211 12.766 16.0408 12.3123 16.0408C11.8586 16.0408 11.4235 16.2211 11.1026 16.5419C10.7818 16.8627 10.6016 17.2978 10.6016 17.7516C10.6016 18.2053 10.7818 18.6404 11.1026 18.9612L16.2139 24.0725C16.3731 24.2304 16.5619 24.3554 16.7695 24.4401C16.9771 24.5249 17.1994 24.5679 17.4236 24.5666C17.6568 24.5592 17.8861 24.504 18.0971 24.4043C18.3081 24.3047 18.4964 24.1628 18.6503 23.9873L30.5767 10.3572C30.852 10.0153 30.9848 9.58032 30.9473 9.14291C30.9098 8.70551 30.7049 8.29946 30.3753 8.00944C30.0458 7.71942 29.617 7.56781 29.1783 7.58622C28.7397 7.60462 28.3251 7.79163 28.021 8.10825L17.4236 20.3754L13.522 16.5419Z" fill="#2BC156"/>
<path d="M32.7596 16.0477C32.3077 16.0477 31.8744 16.2273 31.5548 16.5468C31.2353 16.8663 31.0558 17.2996 31.0558 17.7515C31.0558 21.3664 29.6198 24.8333 27.0637 27.3895C24.5075 29.9456 21.0406 31.3816 17.4257 31.3816C14.7339 31.3804 12.1027 30.5822 9.86399 29.0876C7.62525 27.593 5.87917 25.469 4.84593 22.9834C3.81269 20.4978 3.53857 17.7619 4.05812 15.1207C4.57767 12.4795 5.86764 10.0513 7.76536 8.14228C9.02734 6.86341 10.5317 5.84908 12.1905 5.15867C13.8492 4.46826 15.629 4.11562 17.4257 4.1214C18.5152 4.12822 19.6007 4.2539 20.6629 4.49622C20.8851 4.56498 21.1192 4.58748 21.3505 4.56233C21.5818 4.53718 21.8055 4.46492 22.0078 4.35C22.2101 4.23509 22.3868 4.07995 22.5268 3.89415C22.6669 3.70836 22.7674 3.49584 22.8222 3.26971C22.877 3.04357 22.8849 2.80862 22.8454 2.57932C22.8059 2.35002 22.7198 2.13124 22.5925 1.93647C22.4652 1.7417 22.2994 1.57507 22.1052 1.44685C21.9111 1.31862 21.6927 1.23152 21.4636 1.19092C20.1401 0.879546 18.7854 0.719502 17.4257 0.713867C14.0596 0.731354 10.7742 1.74553 7.98395 3.62842C5.19371 5.5113 3.02374 8.17851 1.74787 11.2934C0.472001 14.4084 0.147419 17.8315 0.815084 21.1307C1.48275 24.4299 3.11274 27.4574 5.49935 29.8312C8.66272 32.996 12.951 34.7787 17.4257 34.7892C21.9444 34.7892 26.278 32.9941 29.4731 29.7989C32.6683 26.6038 34.4634 22.2702 34.4634 17.7515C34.4634 17.2996 34.2839 16.8663 33.9643 16.5468C33.6448 16.2273 33.2115 16.0477 32.7596 16.0477Z" fill="#2BC156"/>
</svg>
