<svg width="28" height="28" viewBox="0 0 28 28" fill="none" xmlns="http://www.w3.org/2000/svg">
<path d="M6.34285 25.6708C7.63873 26.498 9.08627 27.1045 10.6441 27.463C10.8454 27.5068 11.054 27.5047 11.2545 27.4571C11.455 27.4095 11.6422 27.3174 11.8023 27.1877C11.9624 27.058 12.0914 26.894 12.1796 26.7078C12.2679 26.5216 12.3132 26.318 12.3122 26.112C12.3122 25.4916 11.8986 24.9126 11.292 24.7747C10.0375 24.499 8.8519 24.0027 7.80417 23.3272C7.26651 22.9825 6.57721 23.0928 6.12227 23.5478C5.5019 24.1681 5.59841 25.2021 6.34285 25.6708ZM1.60046 15.4002C0.718157 15.4002 0.0426426 16.2136 0.249434 17.0683C0.60787 18.6124 1.21445 20.0599 2.04161 21.3696C2.51034 22.114 3.55808 22.2105 4.17845 21.5901C4.6196 21.149 4.72989 20.4459 4.39902 19.9082C3.72351 18.8467 3.22721 17.6749 2.95149 16.4204C2.87181 16.1243 2.6957 15.8633 2.45101 15.6785C2.20633 15.4937 1.90704 15.3958 1.60046 15.4002ZM4.17845 6.4531C3.55808 5.83273 2.51034 5.92923 2.04161 6.65989C1.21445 7.95577 0.60787 9.40331 0.249434 10.9473C0.0564289 11.8021 0.731943 12.6154 1.60046 12.6154C2.22083 12.6154 2.79985 12.2019 2.93771 11.5953C3.21343 10.3408 3.72351 9.16894 4.38524 8.10742C4.72989 7.59733 4.6196 6.89425 4.17845 6.4531ZM12.3122 1.93128C12.3122 1.04898 11.4988 0.373465 10.6441 0.580256C9.10005 0.938692 7.65252 1.54527 6.35664 2.37244C5.61219 2.84116 5.51569 3.8889 6.13606 4.50927C6.57721 4.95042 7.2803 5.06071 7.80417 4.71606C8.8519 4.04054 10.0237 3.54425 11.292 3.26853C11.8986 3.13067 12.3122 2.56544 12.3122 1.93128ZM12.3122 14.0216V19.536C12.3122 20.2943 12.9326 20.9146 13.6908 20.9146C14.449 20.9146 15.0694 20.2943 15.0694 19.536V14.0216H17.2614C18.4883 14.0216 19.1087 12.5327 18.2402 11.6642L14.6696 8.09363C14.1319 7.55598 13.2634 7.55598 12.7258 8.09363L9.1552 11.6642C8.28668 12.5327 8.90705 14.0216 10.134 14.0216H12.3122ZM15.0694 1.93128C15.0694 1.04898 15.8828 0.373465 16.7375 0.566469C22.8861 1.95886 27.4768 7.44569 27.4768 14.0216C27.4768 20.5975 22.8861 26.0844 16.7375 27.463C16.5362 27.5068 16.3275 27.5047 16.1271 27.4571C15.9266 27.4095 15.7394 27.3174 15.5793 27.1877C15.4192 27.058 15.2902 26.894 15.202 26.7078C15.1137 26.5216 15.0684 26.318 15.0694 26.112C15.0694 25.4778 15.4968 24.9126 16.1171 24.7747C21.0387 23.6718 24.7196 19.2741 24.7196 14.0216C24.7196 8.76915 21.0387 4.37141 16.1171 3.26853C15.4968 3.13067 15.0694 2.56544 15.0694 1.93128Z" fill="#FE2D2E"/>
</svg>
