<svg width="25" height="29" viewBox="0 0 25 29" fill="none" xmlns="http://www.w3.org/2000/svg">
<path d="M23.6375 27.0919C23.7635 26.1569 23.1084 25.2966 22.1723 25.1705L18.2516 24.6423C21.4767 22.927 23.7647 19.7493 24.2737 15.971C24.9474 10.9703 22.3454 6.15272 17.797 3.97697C16.9462 3.56936 15.9242 3.92924 15.5185 4.78045C15.1071 5.63502 15.4716 6.65339 16.3208 7.05981C19.5298 8.59177 21.3617 11.9904 20.8869 15.5148C20.5269 18.1871 18.9016 20.4336 16.6134 21.6415L16.9299 19.2919C17.0558 18.3569 16.4008 17.4965 15.4646 17.3704C14.5285 17.2443 13.6691 17.9006 13.5431 18.8357L12.6306 25.6091C12.5047 26.5442 13.1598 27.4045 14.0959 27.5306L21.716 28.5572C22.6521 28.6833 23.5113 28.0286 23.6375 27.0919ZM9.3175 23.9667C9.72589 23.1101 9.36444 22.0937 8.51523 21.6873C5.31044 20.1565 3.47848 16.7578 3.95327 13.2335C4.31329 10.5611 5.93857 8.31517 8.22685 7.10678L7.91032 9.45632C7.78435 10.3914 8.43945 11.2517 9.37556 11.3778C10.3117 11.5039 11.1711 10.8476 11.2971 9.91257L12.2096 3.13911C12.3355 2.20406 11.6804 1.34373 10.7443 1.21762L3.12418 0.191046C2.18806 0.0649344 1.32865 0.721229 1.20268 1.65628C1.07672 2.59134 1.73181 3.45167 2.66792 3.57778L6.58859 4.10596C3.36245 5.82108 1.07555 8.9989 0.572957 12.7296C-0.100375 17.7277 2.50133 22.5474 7.04977 24.7226C7.89316 25.181 8.95961 24.8236 9.3175 23.9667Z" fill="#BFBFBF"/>
</svg>
