<svg width="23" height="29" viewBox="0 0 23 29" fill="none" xmlns="http://www.w3.org/2000/svg">
<path d="M20.4202 3.685H17.4202V2.685C17.4202 2.15456 17.2095 1.64586 16.8344 1.27078C16.4593 0.895711 15.9506 0.684998 15.4202 0.684998H7.42017C6.88973 0.684998 6.38103 0.895711 6.00595 1.27078C5.63088 1.64586 5.42017 2.15456 5.42017 2.685V3.685H2.42017C1.88973 3.685 1.38103 3.89571 1.00595 4.27078C0.63088 4.64586 0.420166 5.15456 0.420166 5.685V26.685C0.420166 27.2154 0.63088 27.7241 1.00595 28.0992C1.38103 28.4743 1.88973 28.685 2.42017 28.685H20.4202C20.9506 28.685 21.4593 28.4743 21.8344 28.0992C22.2095 27.7241 22.4202 27.2154 22.4202 26.685V5.685C22.4202 5.15456 22.2095 4.64586 21.8344 4.27078C21.4593 3.89571 20.9506 3.685 20.4202 3.685V3.685ZM7.42017 2.685H15.4202V6.685H7.42017V2.685ZM20.4202 26.685H2.42017V5.685H5.42017V8.685H17.4202V5.685H20.4202V26.685Z" fill="#BFBFBF"/>
</svg>
