<svg width="29" height="29" viewBox="0 0 29 29" fill="none" xmlns="http://www.w3.org/2000/svg">
<path d="M0.655029 25.302H28.1852V28.055H0.655029V25.302ZM3.40805 14.2899H6.16107V23.9255H3.40805V14.2899ZM10.2906 14.2899H13.0436V23.9255H10.2906V14.2899ZM15.7966 14.2899H18.5497V23.9255H15.7966V14.2899ZM22.6792 14.2899H25.4322V23.9255H22.6792V14.2899ZM0.655029 7.40739L14.4201 0.524841L28.1852 7.40739V12.9134H0.655029V7.40739ZM3.40805 9.10875V10.1604H25.4322V9.10875L14.4201 3.60272L3.40805 9.10875ZM14.4201 8.7839C14.055 8.7839 13.7049 8.63887 13.4468 8.38073C13.1886 8.12258 13.0436 7.77246 13.0436 7.40739C13.0436 7.04231 13.1886 6.69219 13.4468 6.43405C13.7049 6.1759 14.055 6.03088 14.4201 6.03088C14.7852 6.03088 15.1353 6.1759 15.3935 6.43405C15.6516 6.69219 15.7966 7.04231 15.7966 7.40739C15.7966 7.77246 15.6516 8.12258 15.3935 8.38073C15.1353 8.63887 14.7852 8.7839 14.4201 8.7839Z" fill="#BFBFBF"/>
</svg>
