<svg width="24" height="24" viewBox="0 0 24 24" fill="none" xmlns="http://www.w3.org/2000/svg">
<path d="M22.9124 9.81155L20.8823 9.15903L20.4473 8.07149L21.4624 6.18641C21.6799 5.7514 21.6074 5.17138 21.2448 4.80886L19.5048 3.06879C19.1423 2.70628 18.5622 2.63378 18.1272 2.85129L16.2421 3.86632L15.1546 3.43131L14.5021 1.40123C14.3571 0.966213 13.9221 0.603699 13.4145 0.603699H10.9494C10.4419 0.603699 10.0069 0.966213 9.9344 1.47373L9.28188 3.50381C8.84686 3.57631 8.48435 3.72132 8.12183 3.93883L6.23676 2.92379C5.80174 2.70628 5.22172 2.77878 4.85921 3.1413L3.11914 4.88136C2.75663 5.24388 2.68412 5.8239 2.90163 6.25892L3.84417 8.07149C3.69916 8.434 3.55416 8.86902 3.40915 9.23153L1.37907 9.88406C0.944057 10.0291 0.581543 10.4641 0.581543 10.9716V13.4367C0.581543 13.9442 0.944057 14.3792 1.45158 14.5242L3.48166 15.1768L3.91667 16.2643L2.90163 18.1494C2.68412 18.5844 2.75663 19.1644 3.11914 19.5269L4.85921 21.267C5.22172 21.6295 5.80174 21.702 6.23676 21.4845L8.12183 20.4695L9.20938 20.9045L9.8619 23.0071C10.0069 23.4421 10.4419 23.8046 10.9494 23.8046H13.4145C13.9221 23.8046 14.3571 23.4421 14.5021 23.0071L15.1546 20.9045L16.2421 20.4695L18.1272 21.4845C18.5622 21.702 19.1423 21.6295 19.5048 21.267L21.2448 19.5269C21.6074 19.1644 21.6799 18.5844 21.4624 18.1494L20.4473 16.2643L20.8823 15.1768L22.9849 14.5242C23.4199 14.3792 23.7824 13.9442 23.7824 13.4367V10.9716C23.7824 10.4641 23.4199 9.95656 22.9124 9.81155ZM22.3324 13.2192L19.7223 14.0167L19.6498 14.3792L18.9973 15.9018L18.7797 16.2643L20.0848 18.6569L18.6347 20.107L16.2421 18.8019L15.8796 19.0194C15.3721 19.3094 14.8646 19.5269 14.3571 19.6719L13.9946 19.7444L13.197 22.3545H11.167L10.3694 19.7444L10.0069 19.6719L8.48435 19.0194L8.12183 18.8019L5.72924 20.107L4.27919 18.6569L5.58424 16.2643L5.36673 15.9018C5.07672 15.3943 4.85921 14.8868 4.7142 14.3792L4.6417 14.0167L2.0316 13.2192V11.1891L4.49669 10.4641L4.6417 10.1016C4.78671 9.52154 5.00421 9.01402 5.29423 8.5065L5.51173 8.14399L4.27919 5.7514L5.72924 4.30134L8.04933 5.60639L8.41185 5.38888C8.91937 5.09887 9.42688 4.88136 10.0069 4.73636L10.3694 4.59135L11.167 2.05375H13.197L13.9946 4.59135L14.3571 4.73636C14.8646 4.88136 15.3721 5.09887 15.8796 5.38888L16.2421 5.60639L18.6347 4.30134L20.0848 5.7514L18.7797 8.14399L18.9973 8.5065C19.2873 9.01402 19.5048 9.52154 19.6498 10.0291L19.7223 10.3916L22.3324 11.1891V13.2192Z" fill="white"/>
</svg>
