<svg width="29" height="27" viewBox="0 0 29 27" fill="none" xmlns="http://www.w3.org/2000/svg">
<path d="M20.2689 23.1675L19.4757 16.8167C19.3633 15.9171 18.9261 15.0896 18.2464 14.4898C17.5667 13.89 16.6912 13.5591 15.7847 13.5595H13.053C12.1469 13.5597 11.2721 13.8909 10.5929 14.4906C9.91367 15.0904 9.47686 15.9176 9.3645 16.8167L8.57003 23.1675C8.52643 23.5164 8.55756 23.8706 8.66135 24.2065C8.76514 24.5425 8.93922 24.8525 9.17203 25.116C9.40483 25.3796 9.69104 25.5905 10.0116 25.735C10.3322 25.8794 10.6799 25.9539 11.0315 25.9537H17.8087C18.1602 25.9538 18.5077 25.8791 18.8282 25.7346C19.1486 25.5901 19.4347 25.3791 19.6673 25.1156C19.9 24.8521 20.074 24.5421 20.1777 24.2062C20.2814 23.8704 20.3125 23.5163 20.2689 23.1675V23.1675Z" stroke="#BFBFBF" stroke-width="2" stroke-linecap="round" stroke-linejoin="round"/>
<path d="M14.42 8.6018C16.4736 8.6018 18.1383 6.93708 18.1383 4.88354C18.1383 2.83 16.4736 1.16528 14.42 1.16528C12.3665 1.16528 10.7018 2.83 10.7018 4.88354C10.7018 6.93708 12.3665 8.6018 14.42 8.6018Z" stroke="#BFBFBF" stroke-width="2"/>
<path d="M4.50472 12.32C5.87374 12.32 6.98356 11.2102 6.98356 9.84121C6.98356 8.47218 5.87374 7.36237 4.50472 7.36237C3.13569 7.36237 2.02588 8.47218 2.02588 9.84121C2.02588 11.2102 3.13569 12.32 4.50472 12.32Z" stroke="#BFBFBF" stroke-width="2"/>
<path d="M24.3354 12.32C25.7044 12.32 26.8142 11.2102 26.8142 9.84121C26.8142 8.47218 25.7044 7.36237 24.3354 7.36237C22.9664 7.36237 21.8566 8.47218 21.8566 9.84121C21.8566 11.2102 22.9664 12.32 24.3354 12.32Z" stroke="#BFBFBF" stroke-width="2"/>
<path d="M24.3355 16.0383H24.7148C25.3015 16.0383 25.8693 16.2463 26.3171 16.6256C26.7649 17.0048 27.0636 17.5306 27.1601 18.1094L27.5729 20.5882C27.6321 20.9434 27.6132 21.3072 27.5176 21.6543C27.422 22.0014 27.2519 22.3236 27.0192 22.5983C26.7864 22.873 26.4967 23.0937 26.17 23.2451C25.8433 23.3965 25.4875 23.4749 25.1275 23.4748H20.6172M4.50478 16.0383H4.12551C3.53873 16.0383 2.97094 16.2463 2.52316 16.6256C2.07539 17.0048 1.77667 17.5306 1.68014 18.1094L1.26741 20.5882C1.20818 20.9434 1.22703 21.3072 1.32265 21.6543C1.41827 22.0014 1.58836 22.3236 1.82109 22.5983C2.05383 22.873 2.34362 23.0937 2.6703 23.2451C2.99699 23.3965 3.35273 23.4749 3.71279 23.4748H8.22304L4.50478 16.0383Z" stroke="#BFBFBF" stroke-width="2" stroke-linecap="round" stroke-linejoin="round"/>
</svg>
