<svg width="33" height="33" viewBox="0 0 33 33" fill="none" xmlns="http://www.w3.org/2000/svg">
<path d="M15.1329 10.3973H24.7891C25.2159 10.3973 25.6253 10.2283 25.9271 9.92747C26.2289 9.62662 26.3985 9.21858 26.3985 8.79312C26.3985 8.36765 26.2289 7.95961 25.9271 7.65876C25.6253 7.35791 25.2159 7.1889 24.7891 7.1889H15.1329C14.7061 7.1889 14.2968 7.35791 13.995 7.65876C13.6931 7.95961 13.5236 8.36765 13.5236 8.79312C13.5236 9.21858 13.6931 9.62662 13.995 9.92747C14.2968 10.2283 14.7061 10.3973 15.1329 10.3973ZM21.5704 20.0227H18.3517C17.9248 20.0227 17.5155 20.1917 17.2137 20.4925C16.9119 20.7934 16.7423 21.2014 16.7423 21.6269C16.7423 22.0523 16.9119 22.4604 17.2137 22.7612C17.5155 23.0621 17.9248 23.2311 18.3517 23.2311H21.5704C21.9972 23.2311 22.4066 23.0621 22.7084 22.7612C23.0102 22.4604 23.1798 22.0523 23.1798 21.6269C23.1798 21.2014 23.0102 20.7934 22.7084 20.4925C22.4066 20.1917 21.9972 20.0227 21.5704 20.0227V20.0227ZM2.25805 16.8142H7.08614V31.2522C7.08501 31.5349 7.15884 31.8128 7.30015 32.0579C7.44145 32.303 7.64522 32.5065 7.89082 32.6479C8.13547 32.7887 8.413 32.8628 8.6955 32.8628C8.978 32.8628 9.25553 32.7887 9.50018 32.6479L14.3283 29.8886L19.1564 32.6479C19.401 32.7887 19.6785 32.8628 19.961 32.8628C20.2435 32.8628 20.5211 32.7887 20.7657 32.6479L25.5938 29.8886L30.4219 32.6479C30.6665 32.7887 30.9441 32.8628 31.2266 32.8628C31.5091 32.8628 31.7866 32.7887 32.0312 32.6479C32.2768 32.5065 32.4806 32.303 32.6219 32.0579C32.7632 31.8128 32.8371 31.5349 32.8359 31.2522V5.58468C32.8359 4.30828 32.3273 3.08416 31.4218 2.18161C30.5164 1.27906 29.2883 0.772016 28.0078 0.772016H5.47678C4.19629 0.772016 2.96824 1.27906 2.0628 2.18161C1.15736 3.08416 0.64869 4.30828 0.64869 5.58468V15.21C0.64869 15.6355 0.818246 16.0435 1.12006 16.3444C1.42187 16.6452 1.83122 16.8142 2.25805 16.8142ZM28.0078 3.98046C28.4347 3.98046 28.844 4.14947 29.1458 4.45032C29.4476 4.75117 29.6172 5.15921 29.6172 5.58468V28.4769L26.3985 26.6481C26.1501 26.5188 25.874 26.4512 25.5938 26.4512C25.3136 26.4512 25.0375 26.5188 24.7891 26.6481L19.961 29.4073L15.1329 26.6481C14.8846 26.5188 14.6085 26.4512 14.3283 26.4512C14.048 26.4512 13.772 26.5188 13.5236 26.6481L10.3049 28.4769V5.58468C10.3005 5.03741 10.2025 4.49489 10.0152 3.98046H28.0078ZM3.86741 5.58468C3.86741 5.15921 4.03697 4.75117 4.33878 4.45032C4.6406 4.14947 5.04995 3.98046 5.47678 3.98046C5.9036 3.98046 6.31295 4.14947 6.61477 4.45032C6.91658 4.75117 7.08614 5.15921 7.08614 5.58468V13.6058H3.86741V5.58468ZM15.1329 16.8142H24.7891C25.2159 16.8142 25.6253 16.6452 25.9271 16.3444C26.2289 16.0435 26.3985 15.6355 26.3985 15.21C26.3985 14.7845 26.2289 14.3765 25.9271 14.0756C25.6253 13.7748 25.2159 13.6058 24.7891 13.6058H15.1329C14.7061 13.6058 14.2968 13.7748 13.995 14.0756C13.6931 14.3765 13.5236 14.7845 13.5236 15.21C13.5236 15.6355 13.6931 16.0435 13.995 16.3444C14.2968 16.6452 14.7061 16.8142 15.1329 16.8142Z" fill="#1EAAE7"/>
</svg>
