<svg width="23" height="23" viewBox="0 0 23 23" fill="none" xmlns="http://www.w3.org/2000/svg">
<path d="M1.46162 9.71274C1.22149 9.71274 0.991196 9.61735 0.8214 9.44755C0.651604 9.27776 0.556213 9.04747 0.556213 8.80734V1.56593C0.556213 1.3258 0.651604 1.0955 0.8214 0.925709C0.991196 0.755913 1.22149 0.660522 1.46162 0.660522H8.70484C8.94497 0.660522 9.17526 0.755913 9.34506 0.925709C9.51485 1.0955 9.61024 1.3258 9.61024 1.56593V8.80734C9.61024 9.04747 9.51485 9.27776 9.34506 9.44755C9.17526 9.61735 8.94497 9.71274 8.70484 9.71274H1.46162ZM14.1373 9.71274C13.8971 9.71274 13.6668 9.61735 13.497 9.44755C13.3272 9.27776 13.2319 9.04747 13.2319 8.80734V1.56593C13.2319 1.3258 13.3272 1.0955 13.497 0.925709C13.6668 0.755913 13.8971 0.660522 14.1373 0.660522H21.3787C21.6188 0.660522 21.8491 0.755913 22.0189 0.925709C22.1887 1.0955 22.2841 1.3258 22.2841 1.56593V8.80734C22.2841 9.04747 22.1887 9.27776 22.0189 9.44755C21.8491 9.61735 21.6188 9.71274 21.3787 9.71274H14.1373ZM1.46162 22.3884C1.22149 22.3884 0.991196 22.293 0.8214 22.1232C0.651604 21.9534 0.556213 21.7231 0.556213 21.483V14.2398C0.556213 13.9996 0.651604 13.7693 0.8214 13.5995C0.991196 13.4297 1.22149 13.3344 1.46162 13.3344H8.70484C8.94497 13.3344 9.17526 13.4297 9.34506 13.5995C9.51485 13.7693 9.61024 13.9996 9.61024 14.2398V21.483C9.61024 21.7231 9.51485 21.9534 9.34506 22.1232C9.17526 22.293 8.94497 22.3884 8.70484 22.3884H1.46162ZM14.1373 22.3884C13.8971 22.3884 13.6668 22.293 13.497 22.1232C13.3272 21.9534 13.2319 21.7231 13.2319 21.483V14.2398C13.2319 13.9996 13.3272 13.7693 13.497 13.5995C13.6668 13.4297 13.8971 13.3344 14.1373 13.3344H21.3787C21.6188 13.3344 21.8491 13.4297 22.0189 13.5995C22.1887 13.7693 22.2841 13.9996 22.2841 14.2398V21.483C22.2841 21.7231 22.1887 21.9534 22.0189 22.1232C21.8491 22.293 21.6188 22.3884 21.3787 22.3884H14.1373Z" fill="#BFBFBF"/>
</svg>
