<svg width="31" height="28" viewBox="0 0 31 28" fill="none" xmlns="http://www.w3.org/2000/svg">
<path d="M20.1004 16.5903C20.1004 16.1275 20.2376 15.6751 20.4947 15.2902C20.7519 14.9054 21.1174 14.6055 21.545 14.4284C21.9726 14.2512 22.4431 14.2049 22.897 14.2952C23.351 14.3855 23.7679 14.6084 24.0952 14.9356C24.4225 15.2629 24.6453 15.6799 24.7356 16.1338C24.8259 16.5877 24.7796 17.0583 24.6025 17.4859C24.4253 17.9135 24.1254 18.2789 23.7406 18.5361C23.3557 18.7932 22.9033 18.9305 22.4405 18.9305C21.8198 18.9305 21.2246 18.6839 20.7858 18.2451C20.3469 17.8062 20.1004 17.211 20.1004 16.5903ZM30.6309 9.56999V24.7807C30.627 25.5554 30.3176 26.2971 29.7699 26.8449C29.2221 27.3926 28.4804 27.702 27.7057 27.7059H4.30458C3.21965 27.702 2.18025 27.2693 1.41309 26.5022C0.645923 25.735 0.213228 24.6956 0.209373 23.6107V5.50404C0.20745 4.8875 0.326982 4.27662 0.561145 3.70628C0.795308 3.13594 1.13952 2.6173 1.57412 2.17998C2.00872 1.74267 2.5252 1.39523 3.09407 1.15752C3.66294 0.919809 4.27307 0.796473 4.88961 0.794556H24.1956C24.661 0.794556 25.1075 0.979466 25.4366 1.30861C25.7657 1.63775 25.9507 2.08416 25.9507 2.54964C25.9507 3.01512 25.7657 3.46153 25.4366 3.79068C25.1075 4.11982 24.661 4.30473 24.1956 4.30473H4.88961C4.57211 4.30772 4.2681 4.43352 4.04131 4.65575C3.83415 4.87813 3.71915 5.17087 3.71955 5.47479V5.50404C3.74192 5.81697 3.88317 6.10949 4.11433 6.32161C4.34549 6.53373 4.64903 6.64938 4.96273 6.64485H27.7057C28.4804 6.64869 29.2221 6.95811 29.7699 7.50585C30.3176 8.05359 30.627 8.79538 30.6309 9.56999ZM27.1207 10.155H4.96273C4.54316 10.1548 4.12535 10.1008 3.71955 9.99414V23.6107C3.71955 23.7658 3.78118 23.9147 3.8909 24.0244C4.00061 24.1341 4.14942 24.1957 4.30458 24.1957H27.1207V10.155Z" fill="#BFBFBF"/>
</svg>
